{"glyphs":{"0":{"ha":1356,"x_min":323,"x_max":1027,"o":"m 1006 -152 l 344 -152 l 344 1024 l 1006 1024 l 1006 -152 m 951 -268 q 1005 -244 983 -268 q 1027 -185 1027 -220 l 1027 1057 q 1005 1116 1027 1092 q 951 1140 983 1140 l 399 1140 q 345 1116 367 1140 q 323 1057 323 1092 l 323 -185 q 345 -244 323 -220 q 399 -268 367 -268 l 951 -268 m 711 -239 l 643 -239 q 624 -231 632 -239 q 616 -212 616 -223 q 624 -191 616 -199 q 643 -183 632 -183 l 711 -183 q 731 -191 723 -183 q 739 -212 739 -199 q 731 -231 739 -223 q 711 -239 723 -239 m 732 1066 l 627 1066 q 616 1078 616 1066 q 620 1085 616 1082 q 627 1089 623 1089 l 732 1089 q 742 1078 742 1089 q 732 1066 742 1066 m 474 1065 q 465 1068 469 1065 q 461 1078 461 1072 q 465 1087 461 1083 q 474 1090 469 1090 q 483 1087 479 1090 q 487 1078 487 1083 q 483 1068 487 1072 q 474 1065 479 1065 m 882 -199 l 910 -199 q 920 -203 916 -199 q 924 -214 924 -208 q 920 -225 924 -221 q 910 -230 916 -230 l 876 -230 l 876 -224 l 906 -224 q 913 -221 911 -224 q 916 -214 916 -218 q 913 -208 916 -211 q 906 -205 911 -205 l 882 -205 l 882 -211 l 862 -202 l 882 -193 l 882 -199 m 472 -226 l 472 -208 l 439 -208 l 439 -226 l 472 -226 m 479 -231 l 433 -231 l 433 -202 l 479 -202 l 479 -231 m 491 -220 l 485 -220 l 485 -197 l 446 -197 l 446 -191 l 491 -191 l 491 -220 z "},"1":{"ha":1356,"x_min":14,"x_max":1345,"o":"m 947 144 q 989 187 986 144 q 971 225 989 217 l 970 229 q 973 230 970 230 q 1005 273 1003 240 q 979 321 1005 307 l 979 324 q 980 326 979 326 q 1020 376 1020 338 q 985 427 1017 408 l 983 429 l 985 431 q 1020 490 1020 441 q 1013 521 1020 510 q 973 542 997 542 l 806 542 q 793 545 800 542 l 787 550 l 788 553 l 793 557 q 804 586 794 565 q 833 691 833 652 q 826 746 833 724 l 818 768 l 806 785 q 767 804 791 802 q 727 764 727 801 q 726 700 726 736 q 705 674 726 694 q 657 621 692 662 q 570 404 570 520 l 570 170 q 579 148 571 152 l 590 144 l 947 144 m 500 93 q 514 99 508 93 q 520 441 520 104 q 500 461 520 461 l 357 461 q 336 441 337 461 l 336 113 q 357 93 336 93 l 500 93 m 679 1108 q 1006 1022 847 1108 q 1255 777 1165 937 q 1345 441 1345 616 q 1258 111 1345 269 q 1012 -135 1171 -47 q 679 -223 853 -223 q 348 -135 507 -223 q 102 111 189 -47 q 14 441 14 269 q 104 777 14 616 q 352 1022 193 937 q 679 1108 511 1108 z "},"2":{"ha":1356,"x_min":14,"x_max":1345,"o":"m 331 418 q 330 444 330 431 q 360 578 330 515 q 525 138 446 353 q 331 418 344 223 m 794 122 q 682 98 741 98 q 581 115 633 98 q 631 263 600 171 q 684 410 670 369 q 739 266 704 360 q 794 122 776 166 m 905 463 q 876 356 903 442 q 845 252 859 299 q 814 344 843 257 q 720 616 728 587 q 770 635 770 620 l 770 636 q 739 646 768 646 q 718 644 730 646 q 656 643 686 643 q 602 644 627 643 q 583 646 591 646 q 556 633 556 646 l 556 632 q 605 616 556 623 l 604 620 l 660 470 q 582 241 582 239 l 583 248 q 457 616 540 372 q 509 629 509 623 l 509 631 q 470 643 509 643 l 452 643 q 380 642 426 642 q 644 795 476 783 q 673 796 659 796 q 903 707 804 796 l 900 707 q 852 680 869 707 q 843 646 843 663 q 848 617 843 632 q 905 463 905 465 m 1037 424 q 865 155 1026 248 q 922 315 886 217 q 981 476 968 440 q 997 577 997 524 q 996 606 997 591 l 997 606 l 997 604 q 1038 446 1038 530 q 1037 424 1038 435 m 1085 466 q 966 729 1072 623 q 704 848 859 836 l 654 848 q 392 729 498 836 q 272 466 283 620 l 272 417 q 392 155 285 261 q 654 35 498 47 l 704 35 q 966 155 859 47 q 1085 417 1072 261 l 1085 466 m 679 1108 q 1006 1022 847 1108 q 1255 777 1165 937 q 1345 441 1345 616 q 1258 111 1345 269 q 1012 -135 1171 -47 q 679 -223 853 -223 q 348 -135 507 -223 q 102 111 189 -47 q 14 441 14 269 q 104 777 14 616 q 352 1022 193 937 q 679 1108 511 1108 z "},"3":{"ha":1356,"x_min":14,"x_max":1345,"o":"m 679 56 q 443 151 545 56 q 340 392 340 247 q 376 551 340 489 q 528 694 432 648 q 643 779 633 747 q 650 831 647 794 q 728 754 692 781 q 797 713 759 733 q 912 636 869 673 q 1016 385 1014 551 q 916 146 1016 237 q 679 56 815 56 m 741 93 q 809 103 783 93 q 854 135 854 120 q 848 144 854 144 q 842 142 846 144 q 746 115 820 115 q 661 136 686 115 q 659 138 660 138 q 658 139 659 138 q 656 139 657 139 q 647 135 651 139 q 642 125 643 130 q 646 117 642 121 q 705 94 670 98 q 741 93 724 93 m 722 171 q 739 183 726 171 q 756 198 747 193 q 785 203 766 203 q 821 183 814 203 q 828 173 826 173 q 839 186 839 173 q 836 191 839 189 q 831 199 833 193 q 818 218 825 211 q 785 224 810 224 q 721 193 749 224 q 713 181 713 189 q 719 174 713 178 q 722 171 720 171 m 914 184 q 966 222 943 184 q 986 315 986 256 q 981 345 986 326 q 964 377 976 363 q 935 392 953 392 q 871 353 916 392 q 806 315 827 315 q 736 343 779 315 q 672 376 707 360 q 600 392 637 392 q 508 362 547 392 q 470 288 470 333 q 486 243 470 264 q 526 208 507 218 q 600 186 553 186 q 663 200 630 186 q 726 231 695 214 q 806 263 775 261 q 864 220 826 260 q 890 195 878 206 q 914 184 902 184 m 679 1108 q 352 1022 511 1108 q 104 777 193 937 q 14 441 14 616 q 102 111 14 269 q 348 -135 189 -47 q 679 -223 507 -223 q 1012 -135 853 -223 q 1258 111 1171 -47 q 1345 441 1345 269 q 1255 777 1345 616 q 1006 1022 1165 937 q 679 1108 847 1108 z "},"4":{"ha":1356,"x_min":14,"x_max":1345,"o":"m 679 1108 q 352 1022 511 1108 q 104 777 193 937 q 14 441 14 616 q 102 111 14 269 q 348 -135 189 -47 q 679 -223 507 -223 q 1012 -135 853 -223 q 1258 111 1171 -47 q 1345 441 1345 269 q 1255 777 1345 616 q 1006 1022 1165 937 q 679 1108 847 1108 m 678 12 q 460 69 558 12 q 304 225 363 127 q 246 444 246 323 q 304 661 246 562 q 460 817 363 759 q 678 874 558 874 q 895 817 797 874 q 1051 661 994 759 q 1109 444 1109 562 q 1051 225 1109 323 q 895 69 994 127 q 678 12 797 12 m 680 52 q 877 104 787 52 q 1019 246 966 157 q 1072 444 1072 336 q 1019 641 1072 552 q 877 782 966 729 q 680 834 787 834 q 483 782 572 834 q 341 641 394 729 q 288 444 288 552 q 341 246 288 336 q 483 104 394 157 q 680 52 572 52 m 509 169 q 447 210 464 169 q 444 230 444 218 q 475 286 444 269 q 524 300 508 300 l 550 307 q 569 334 569 310 l 570 642 q 593 663 575 661 q 743 694 663 678 q 850 715 837 711 l 857 717 q 874 701 869 717 l 874 296 q 860 256 872 275 q 784 224 837 224 q 735 242 753 224 q 718 275 722 256 l 717 284 q 798 356 717 343 l 823 361 q 843 382 840 363 l 843 570 q 831 582 842 582 l 616 540 q 602 522 602 536 q 598 231 600 243 q 509 169 585 169 z "},"5":{"ha":1356,"x_min":9,"x_max":1342,"o":"m 675 196 l 675 -226 q 340 -136 492 -226 q 99 105 189 -46 q 9 441 9 256 q 99 776 9 625 q 340 1017 189 927 q 675 1107 492 1107 l 921 1107 l 1342 682 l 675 682 q 504 611 575 682 q 432 439 432 540 q 504 267 432 338 q 675 196 575 196 m 918 -226 l 918 682 l 1342 682 l 1342 -226 l 918 -226 m 1342 682 l 1342 264 l 918 682 l 1342 682 z "},"6":{"ha":1356,"x_min":14,"x_max":1345,"o":"m 876 465 q 877 473 877 466 q 840 511 877 511 q 815 504 825 511 q 803 489 805 496 q 800 477 800 481 q 803 469 800 473 q 829 472 815 472 q 876 465 862 472 m 853 93 l 829 93 q 703 119 741 93 q 673 203 673 145 q 682 245 673 230 q 728 279 704 274 q 769 284 753 284 l 789 283 l 789 231 l 770 232 q 755 231 762 232 q 745 221 747 230 q 743 208 743 213 q 768 179 743 179 q 795 178 783 179 q 817 177 808 177 q 846 183 834 177 q 858 210 858 195 q 859 231 859 225 q 854 271 859 251 q 833 304 846 296 q 774 322 812 314 q 700 351 708 336 q 693 368 696 359 q 686 378 689 378 q 682 363 684 378 q 656 304 675 317 q 633 301 649 301 q 494 326 577 301 q 433 356 445 339 q 414 426 427 369 q 385 602 385 553 q 387 616 385 610 q 397 635 388 623 q 429 650 407 648 q 468 649 450 650 q 498 648 486 648 q 532 657 526 648 q 541 730 541 681 l 541 770 q 628 808 541 808 q 733 753 724 808 q 772 750 754 751 q 818 748 790 749 q 884 745 842 746 q 953 705 934 740 q 966 652 966 680 l 966 636 l 969 578 q 973 469 973 521 q 880 98 973 158 q 853 93 871 94 m 498 664 l 475 663 q 418 665 439 663 q 403 667 403 667 l 456 724 q 515 779 507 779 q 521 724 521 775 q 520 687 521 703 q 515 668 519 671 q 498 664 511 665 m 679 1108 q 352 1022 511 1108 q 104 777 193 937 q 14 441 14 616 q 102 111 14 269 q 348 -135 189 -47 q 679 -223 507 -223 q 1012 -135 853 -223 q 1258 111 1171 -47 q 1345 441 1345 269 q 1255 777 1345 616 q 1006 1022 1165 937 q 679 1108 847 1108 z "},"7":{"ha":1356,"x_min":14,"x_max":1345,"o":"m 650 96 q 674 101 654 96 q 743 153 718 117 q 776 165 757 153 q 833 244 815 193 q 840 252 835 252 l 840 251 q 854 258 847 252 q 874 290 860 260 q 886 351 886 326 q 900 366 900 359 q 949 408 918 377 q 989 468 983 448 q 1010 536 1005 498 q 1012 550 1011 536 q 1013 555 1013 550 l 1012 556 q 1013 564 1013 557 l 1013 565 l 1013 570 q 1013 585 1013 582 q 1013 586 1013 585 q 1012 594 1013 594 l 1013 594 l 1012 600 q 991 672 1002 649 q 958 725 980 696 q 928 744 939 744 q 907 740 918 744 q 890 713 890 726 q 891 705 890 709 q 906 657 906 666 q 905 655 905 657 q 906 635 906 652 l 905 629 q 906 629 906 629 q 905 623 905 628 q 895 595 900 602 q 884 612 894 596 q 867 633 868 631 q 851 649 851 648 q 864 671 864 657 q 828 716 864 689 q 764 741 793 738 q 762 740 764 740 q 758 741 762 741 l 758 741 q 745 741 758 741 q 733 741 735 741 l 733 741 q 727 740 728 741 l 727 741 q 718 739 723 741 l 718 740 l 697 735 q 708 758 708 749 q 682 787 703 787 q 674 784 677 787 q 608 744 639 773 q 580 699 587 722 l 576 699 q 574 699 576 699 l 573 699 q 564 700 573 700 q 554 701 563 701 q 497 688 525 701 q 469 659 469 676 q 484 633 469 642 q 496 629 496 629 q 472 606 484 620 q 457 588 458 588 q 445 629 451 599 l 446 630 l 444 634 l 445 635 l 444 637 l 444 648 l 445 652 q 444 652 444 652 l 446 657 l 445 657 q 446 661 446 657 q 453 687 449 676 q 460 711 460 704 q 453 730 460 720 q 431 744 440 743 l 431 743 q 425 744 431 744 q 395 729 413 744 q 349 645 365 691 q 338 600 343 625 q 339 599 339 600 q 337 588 338 599 l 338 586 l 337 580 q 338 564 337 569 q 337 564 337 564 q 338 555 338 557 q 339 550 338 553 l 338 550 q 347 505 343 511 q 372 446 347 493 q 443 373 408 392 q 464 329 452 329 l 473 294 q 519 231 500 231 l 529 207 q 561 170 538 191 q 613 150 589 150 q 625 133 623 138 q 628 113 626 117 q 650 96 638 96 m 655 124 l 652 124 q 639 161 652 144 q 613 217 613 184 l 612 217 q 608 186 608 205 l 608 177 l 597 181 q 547 235 563 195 q 534 297 534 271 l 533 298 q 524 258 524 274 q 513 274 517 266 q 490 345 493 310 l 492 345 q 490 351 490 346 l 490 352 l 490 357 q 490 373 490 369 l 490 373 q 492 387 490 382 l 492 394 q 475 356 482 385 l 473 356 q 463 399 468 377 l 464 399 l 463 403 l 463 404 l 462 412 l 463 414 q 462 420 462 415 l 463 456 l 463 457 q 497 543 471 505 q 460 524 489 543 q 493 589 468 559 q 532 620 516 613 q 544 625 543 625 l 544 627 q 496 657 521 654 q 535 673 512 667 q 544 675 543 674 l 544 674 l 550 675 q 564 674 557 675 q 566 675 564 675 q 568 673 566 674 l 570 674 q 576 671 570 673 q 576 673 576 673 l 600 665 q 628 725 600 696 q 680 758 651 749 q 674 747 680 756 q 658 687 659 713 l 659 687 q 721 713 685 706 l 721 712 l 730 713 l 730 713 q 737 714 736 713 q 739 713 737 713 q 754 714 751 713 q 764 713 754 713 l 767 712 l 768 713 q 794 703 780 709 q 836 671 815 696 l 817 671 l 817 671 q 777 659 795 670 q 857 604 814 649 q 888 550 880 574 l 877 551 q 864 553 877 553 q 861 551 862 553 q 892 469 888 500 q 891 469 891 469 l 892 457 l 892 453 l 892 450 l 892 446 l 892 440 l 891 429 l 892 429 q 890 422 890 426 q 875 376 884 393 q 869 397 875 382 q 859 420 864 412 l 861 394 l 860 393 q 862 377 862 387 q 860 361 862 367 q 861 359 861 361 q 853 314 861 347 q 838 279 847 294 l 837 279 q 824 334 837 286 q 810 256 822 293 q 749 180 789 199 q 752 201 752 191 q 747 224 752 216 q 732 185 741 203 q 655 124 705 135 m 437 408 q 424 418 427 414 q 377 489 391 452 q 363 541 368 515 q 361 550 362 548 l 362 550 l 361 556 q 362 589 361 582 l 361 589 q 363 595 362 589 l 362 595 q 363 598 363 595 q 365 602 364 600 q 363 604 363 602 q 374 643 369 630 q 408 706 380 667 q 425 722 420 720 q 436 710 436 719 q 430 694 436 705 q 420 657 420 669 l 422 655 q 420 644 420 655 q 422 631 420 634 l 420 631 q 424 618 422 619 l 422 618 l 424 616 q 444 563 426 591 q 431 523 431 532 q 446 499 431 507 l 446 498 q 436 435 436 468 q 437 408 436 414 m 915 408 l 913 408 q 918 452 918 432 q 917 471 918 469 l 918 471 q 903 526 918 486 q 916 548 916 537 q 910 566 916 557 q 930 631 930 609 l 928 633 q 930 643 930 633 q 928 654 930 651 l 930 654 q 924 687 930 663 q 916 714 916 707 q 924 722 918 719 q 933 718 928 722 q 969 662 960 684 q 987 606 979 640 l 986 606 l 987 599 l 987 599 q 988 595 987 597 l 987 595 l 988 589 q 989 583 988 583 l 988 581 q 989 569 989 576 l 988 557 q 989 556 989 557 q 988 549 988 555 q 987 545 987 549 l 988 544 q 987 541 987 544 l 987 541 l 986 534 l 987 533 q 915 408 970 456 m 591 480 l 596 481 q 613 503 613 487 q 591 524 613 519 q 570 503 570 518 l 570 498 q 591 480 576 480 m 751 480 l 757 481 q 773 500 773 488 l 773 505 q 751 524 768 524 q 747 523 751 523 q 732 505 732 517 q 732 495 732 498 q 751 480 739 480 m 681 285 q 694 287 692 286 l 694 286 q 751 313 728 292 q 773 363 773 335 q 740 417 773 391 q 687 435 715 433 l 687 435 q 663 435 687 435 q 647 433 649 435 l 647 435 q 611 422 638 435 q 570 361 570 397 q 599 306 570 330 q 658 286 633 286 q 663 285 658 285 l 663 286 l 663 285 q 680 286 678 285 q 681 285 680 285 m 676 311 q 674 313 675 313 q 667 311 671 313 q 619 326 635 316 q 596 361 596 343 q 622 397 596 380 q 663 410 635 406 l 663 410 l 671 410 l 680 410 l 680 410 q 710 403 699 408 q 745 361 745 385 q 724 326 745 342 q 683 313 703 313 q 676 311 677 313 m 629 351 q 637 361 635 351 q 629 371 637 368 l 628 370 l 625 371 q 616 361 616 367 q 629 351 616 351 m 718 351 q 727 361 726 351 q 718 371 724 371 q 709 359 709 369 q 718 351 709 351 m 679 1108 q 1006 1022 847 1108 q 1255 777 1165 937 q 1345 441 1345 616 q 1258 111 1345 269 q 1012 -135 1171 -47 q 679 -223 853 -223 q 348 -135 507 -223 q 102 111 189 -47 q 14 441 14 269 q 104 777 14 616 q 352 1022 193 937 q 679 1108 511 1108 z "},"8":{"ha":1356,"x_min":14,"x_max":1345,"o":"m 709 782 q 662 735 674 782 l 662 724 q 688 641 662 709 q 557 597 562 597 l 553 597 q 488 699 532 699 l 477 699 q 422 644 429 699 l 422 641 l 445 557 q 340 489 340 534 q 394 427 340 427 l 401 427 q 484 452 416 427 q 528 323 522 330 q 422 250 422 294 q 474 188 431 188 q 560 210 498 188 l 565 210 q 640 105 587 105 q 698 159 698 115 q 673 246 698 170 q 803 294 715 264 q 880 188 825 188 q 937 246 927 188 q 911 330 937 251 q 1017 401 1017 352 l 1017 413 q 962 463 1017 450 q 880 437 957 463 q 832 564 872 437 l 832 568 q 934 634 934 593 l 934 652 q 886 699 934 687 l 872 699 q 799 677 857 699 l 796 677 q 727 782 768 782 l 709 782 m 593 485 q 720 532 605 492 q 767 398 726 529 q 633 358 640 358 q 593 485 633 365 m 679 1108 q 1006 1022 847 1108 q 1255 777 1165 937 q 1345 441 1345 616 q 1258 111 1345 269 q 1012 -135 1171 -47 q 679 -223 853 -223 q 348 -135 507 -223 q 102 111 189 -47 q 14 441 14 269 q 104 777 14 616 q 352 1022 193 937 q 679 1108 511 1108 z "},"9":{"ha":1356,"x_min":14,"x_max":1345,"o":"m 673 128 q 797 178 741 128 q 1045 599 983 319 l 1048 634 q 920 762 1048 762 q 832 741 877 762 q 724 599 747 700 q 776 616 754 616 q 829 542 829 616 q 773 395 829 483 q 724 350 743 350 q 648 499 693 350 l 638 547 q 525 772 595 772 q 467 766 489 772 q 435 755 444 760 l 426 747 q 364 683 393 717 q 319 625 336 649 l 302 599 l 328 573 l 354 596 q 388 606 371 606 q 426 573 416 606 q 551 201 494 317 q 673 128 600 128 m 679 1108 q 1006 1022 847 1108 q 1255 777 1165 937 q 1345 441 1345 616 q 1258 111 1345 269 q 1012 -135 1171 -47 q 679 -223 853 -223 q 348 -135 507 -223 q 102 111 189 -47 q 14 441 14 269 q 104 777 14 616 q 352 1022 193 937 q 679 1108 511 1108 z "},"\u0000":{"ha":0,"x_min":0,"x_max":0,"o":""}," ":{"ha":345,"x_min":0,"x_max":0,"o":""},"!":{"ha":1356,"x_min":10,"x_max":1342,"o":"m 675 1108 q 1003 1022 844 1108 q 1252 776 1162 937 q 1342 441 1342 616 q 1254 111 1342 269 q 1008 -136 1166 -47 q 675 -224 849 -224 q 345 -136 503 -224 q 98 111 186 -47 q 10 441 10 269 q 100 776 10 616 q 348 1022 189 937 q 675 1108 507 1108 m 475 682 q 506 685 504 682 q 509 700 509 687 q 506 715 509 713 q 475 717 504 717 q 443 715 445 717 q 440 700 440 713 q 443 685 440 687 q 475 682 445 682 m 695 310 q 755 326 728 310 q 798 369 782 342 q 814 429 814 396 q 798 488 814 461 q 755 531 782 515 q 695 547 728 547 q 635 531 662 547 q 593 488 608 515 q 577 429 577 461 q 593 369 577 396 q 635 326 608 342 q 695 310 662 310 m 678 174 q 990 174 983 174 q 1027 188 1010 176 q 1051 241 1051 205 l 1051 581 q 1027 635 1051 617 q 990 648 1010 647 q 848 649 983 649 l 814 717 l 577 717 l 543 649 l 374 649 l 366 648 q 330 635 347 647 q 305 581 305 617 l 305 241 q 330 188 305 205 q 366 174 347 176 q 678 174 374 174 m 882 513 q 858 523 868 513 q 848 547 848 532 q 858 571 848 561 q 882 581 868 581 q 906 571 895 581 q 916 547 916 561 q 906 523 916 532 q 882 513 895 513 m 695 276 q 618 297 653 276 q 563 352 584 317 q 543 429 543 387 q 563 505 543 471 q 618 561 584 540 q 695 581 653 581 q 772 561 737 581 q 827 505 807 540 q 848 429 848 471 q 827 352 848 387 q 772 297 807 317 q 695 276 737 276 z "},"\"":{"ha":1356,"x_min":10,"x_max":1342,"o":"m 675 1108 q 1003 1022 844 1108 q 1252 776 1162 937 q 1342 441 1342 616 q 1254 111 1342 269 q 1008 -136 1166 -47 q 675 -224 849 -224 q 345 -136 503 -224 q 98 111 186 -47 q 10 441 10 269 q 100 776 10 616 q 348 1022 189 937 q 675 1108 507 1108 m 843 567 l 843 567 q 930 603 894 567 q 966 689 966 639 q 930 776 966 740 q 843 812 894 812 q 756 776 792 812 q 721 689 721 740 q 756 603 721 639 q 843 567 792 567 m 621 588 q 684 614 658 588 q 710 677 710 640 q 684 741 710 714 q 621 767 658 767 q 557 741 583 767 q 530 677 530 714 q 557 614 531 640 q 621 588 583 588 l 621 588 m 442 598 q 494 620 473 598 q 515 671 515 642 q 494 723 515 702 q 442 745 473 745 q 390 723 412 745 q 369 671 369 702 q 390 620 369 642 q 442 598 412 598 l 442 598 m 731 502 q 707 536 722 520 q 621 572 671 572 q 534 536 569 572 l 530 533 q 513 555 524 545 q 442 585 484 585 q 371 555 400 585 q 342 485 342 526 l 342 479 q 342 478 342 478 l 342 478 l 342 305 l 498 305 l 498 229 l 676 229 l 676 78 l 1010 78 l 1010 378 q 961 496 1010 447 q 843 545 912 545 q 731 502 778 545 z "},"#":{"ha":1356,"x_min":14,"x_max":1339,"o":"m 14 922 l 14 469 l 556 473 l 554 995 l 14 922 m 554 413 l 14 416 l 14 -36 l 554 -111 l 554 413 m 620 1004 l 620 474 l 1338 479 l 1338 1109 l 620 1004 m 1339 407 l 620 408 l 620 -119 l 1338 -221 l 1339 407 z "},"$":{"ha":1356,"x_min":10,"x_max":1342,"o":"m 675 1108 q 1003 1022 844 1108 q 1252 776 1162 937 q 1342 441 1342 616 q 1254 111 1342 269 q 1008 -136 1166 -47 q 675 -224 849 -224 q 345 -136 503 -224 q 98 111 186 -47 q 10 441 10 269 q 100 776 10 616 q 348 1022 189 937 q 675 1108 507 1108 m 646 524 q 551 541 577 530 q 525 586 525 551 q 542 622 525 607 q 646 661 568 654 l 646 524 m 714 233 l 714 380 q 815 364 791 374 q 840 324 840 353 q 714 233 840 252 m 747 52 l 747 66 q 714 98 714 75 l 714 128 q 901 190 831 135 q 970 332 970 245 q 731 517 970 496 l 714 517 l 714 659 q 827 627 773 654 q 875 594 863 607 q 886 566 886 582 l 898 559 l 970 705 l 960 713 q 938 701 945 701 q 918 707 926 701 q 714 763 773 763 l 714 791 q 747 822 714 813 l 747 836 l 620 836 l 620 822 q 646 791 646 813 l 646 766 q 465 711 530 763 q 400 570 400 659 q 455 443 400 481 q 646 392 509 405 l 646 237 q 508 276 557 245 q 458 340 458 306 l 446 347 l 380 194 l 391 189 q 410 197 404 197 q 425 193 421 197 q 646 128 542 135 l 646 98 q 620 66 646 75 l 620 52 l 747 52 z "},"%":{"ha":1356,"x_min":10,"x_max":1342,"o":"m 675 1108 q 348 1022 507 1108 q 100 776 189 937 q 10 441 10 616 q 98 111 10 269 q 345 -136 186 -47 q 675 -224 503 -224 q 1008 -136 849 -224 q 1254 111 1166 -47 q 1342 441 1342 269 q 1252 776 1342 616 q 1003 1022 1162 937 q 675 1108 844 1108 m 859 705 l 859 705 q 854 723 861 716 q 840 730 848 730 l 516 730 q 502 724 508 730 q 495 709 495 718 l 495 208 q 496 207 495 208 q 497 208 496 207 q 515 231 497 208 q 558 284 534 254 q 603 340 583 315 q 628 372 623 365 q 645 387 637 383 q 668 390 652 390 l 776 390 q 791 395 785 390 q 798 407 797 400 q 802 429 799 411 q 810 467 806 448 q 815 494 814 486 q 810 512 817 505 q 795 519 804 519 l 664 519 q 642 528 651 519 q 633 551 633 537 l 633 570 q 642 592 633 583 q 664 601 651 601 l 819 601 q 833 606 827 601 q 840 618 840 612 l 859 705 m 882 812 l 882 812 q 940 788 926 812 q 943 717 954 764 q 918 593 935 673 q 888 445 902 513 q 870 363 873 376 q 854 326 867 345 q 804 307 842 307 q 757 307 785 307 q 708 307 729 307 q 685 307 687 307 q 681 306 683 307 q 677 303 680 306 q 646 266 675 299 q 580 189 617 233 q 514 113 543 146 q 486 79 486 79 q 459 66 473 67 q 437 68 445 66 q 421 80 430 71 q 413 113 413 90 l 413 745 q 428 789 413 765 q 484 812 443 812 q 567 812 504 812 q 701 812 629 812 q 825 812 773 812 q 882 812 877 812 z "},"&":{"ha":1356,"x_min":10,"x_max":1342,"o":"m 675 1108 q 1003 1022 844 1108 q 1252 776 1162 937 q 1342 441 1342 616 q 1254 111 1342 269 q 1008 -136 1166 -47 q 675 -224 849 -224 q 345 -136 503 -224 q 98 111 186 -47 q 10 441 10 269 q 100 776 10 616 q 348 1022 189 937 q 675 1108 507 1108 m 602 270 q 600 268 601 269 q 597 266 599 267 q 538 206 568 236 q 499 167 519 186 q 498 165 498 166 q 490 158 494 162 q 476 119 475 140 q 492 80 476 97 q 533 62 510 62 q 574 79 556 62 q 677 183 626 131 q 680 186 679 184 q 681 189 680 187 q 682 186 682 186 q 686 182 684 183 q 718 151 702 167 q 788 80 753 115 q 837 63 810 60 q 880 91 864 66 q 869 162 899 129 q 798 233 833 198 q 766 265 781 250 q 761 269 764 267 q 761 270 761 269 q 764 271 762 270 q 766 271 766 271 q 876 317 825 286 q 899 382 909 342 q 844 422 885 420 q 808 411 825 422 q 635 380 728 363 q 549 415 589 390 q 505 421 528 427 q 469 395 483 416 q 463 352 458 374 q 489 317 469 330 q 517 300 503 308 q 602 270 557 280 m 682 822 q 543 764 597 819 q 485 625 488 708 q 543 487 488 543 q 682 430 597 432 q 821 487 766 432 q 878 626 876 543 q 819 765 876 709 q 682 822 762 822 m 762 625 q 739 568 762 591 q 680 545 715 545 q 624 568 646 545 q 600 627 602 591 q 625 683 602 661 q 682 707 648 706 q 739 683 716 706 q 762 625 762 660 z "},"'":{"ha":1356,"x_min":14,"x_max":1342,"o":"m 623 285 l 571 285 l 571 562 l 623 561 l 623 285 m 155 282 q 132 283 139 282 q 30 350 63 296 q 14 416 14 380 q 73 535 14 494 q 149 559 109 559 q 252 518 213 559 q 274 492 274 497 q 254 477 272 488 q 240 469 246 473 q 233 465 234 465 l 226 473 q 154 510 195 510 q 92 484 119 510 q 64 417 64 457 q 104 345 64 372 q 155 329 130 329 q 224 371 203 329 q 231 385 231 383 q 145 387 231 387 l 145 437 l 288 437 l 287 417 q 271 348 286 376 q 155 282 237 282 m 417 281 q 398 283 408 281 q 313 365 332 298 q 309 402 309 379 q 312 427 309 416 q 368 495 326 474 q 399 505 384 503 q 427 507 406 507 q 477 488 453 507 l 486 481 q 487 503 487 481 l 537 503 l 537 285 l 487 285 l 487 312 l 481 307 q 417 281 452 281 m 424 326 q 480 359 463 326 q 489 393 489 376 q 438 460 489 446 q 424 460 431 460 q 380 443 400 460 q 359 393 359 426 q 393 334 359 351 q 424 326 408 326 m 757 281 q 717 289 738 281 q 651 370 665 313 q 649 392 649 380 q 652 425 649 412 q 738 505 669 490 q 766 507 745 507 q 826 479 795 507 l 826 503 l 878 503 l 878 285 l 826 285 l 826 312 l 817 304 q 757 281 790 281 m 762 327 q 801 338 784 327 q 827 392 827 354 q 825 411 827 403 q 764 460 810 460 q 707 425 725 460 q 699 393 699 409 q 713 349 699 366 q 762 327 732 327 m 1086 285 l 1057 285 q 1003 356 1030 321 q 952 285 977 321 l 890 286 q 930 340 890 286 q 971 395 971 393 l 894 502 q 954 503 894 503 l 1004 437 q 1053 503 1006 437 q 1112 502 1112 503 q 1047 410 1112 501 q 1036 394 1036 395 q 1077 340 1036 393 q 1118 286 1118 287 q 1086 285 1118 285 m 1222 205 l 1171 205 q 1190 252 1172 210 q 1207 294 1207 293 q 1118 503 1206 299 l 1172 503 l 1202 431 q 1223 380 1215 401 q 1232 359 1232 359 q 1290 503 1233 359 q 1342 502 1342 503 l 1222 205 z "},"(":{"ha":1356,"x_min":10,"x_max":1342,"o":"m 675 1108 q 1003 1022 844 1108 q 1252 776 1162 937 q 1342 441 1342 616 q 1254 111 1342 269 q 1008 -136 1166 -47 q 675 -224 849 -224 q 345 -136 503 -224 q 98 111 186 -47 q 10 441 10 269 q 100 776 10 616 q 348 1022 189 937 q 675 1108 507 1108 m 673 219 q 691 228 686 219 l 1077 613 q 1085 631 1085 622 q 1077 651 1085 642 l 1014 713 q 996 720 1008 720 q 977 713 983 720 l 673 409 l 541 542 q 522 550 534 550 q 503 542 509 550 l 440 480 q 432 461 432 471 q 440 441 432 451 l 654 228 q 673 219 662 219 m 676 45 q 743 73 713 45 l 1053 383 q 1084 450 1084 414 q 1053 518 1084 486 l 727 192 q 676 171 705 171 l 662 171 l 659 174 q 625 192 639 179 l 407 408 q 387 458 387 429 q 407 510 387 486 l 471 571 q 522 593 492 593 q 573 571 549 593 l 673 472 l 885 682 l 743 824 q 676 852 713 852 q 608 824 639 852 l 298 518 q 271 450 271 486 q 298 383 271 414 l 608 73 q 676 45 639 45 z "},")":{"ha":1358,"x_min":14,"x_max":1343,"o":"m 678 -227 q 208 -32 403 -227 q 14 437 14 162 q 208 907 14 712 q 678 1101 403 1101 q 1148 907 954 1101 q 1343 437 1343 712 q 1148 -32 1343 162 q 678 -227 954 -227 m 390 304 q 448 330 424 304 q 471 393 471 356 q 448 456 471 430 q 390 481 424 481 q 333 456 357 481 q 309 393 309 430 q 333 330 309 356 q 390 304 357 304 m 966 304 q 1023 330 1000 304 q 1047 393 1047 356 q 1023 456 1047 430 q 966 481 1000 481 q 909 456 932 481 q 885 393 885 430 q 909 330 885 356 q 966 304 932 304 m 856 12 q 874 18 863 12 q 886 41 886 24 l 882 56 q 678 172 804 172 q 474 56 553 172 l 470 41 q 499 12 470 12 q 524 25 515 12 q 678 113 584 113 q 829 25 772 113 q 856 12 842 12 m 277 496 q 311 521 298 496 q 406 572 345 572 l 430 570 q 456 604 456 570 q 400 630 456 630 q 289 584 335 630 q 250 524 250 549 q 277 496 250 496 m 1079 496 q 1093 500 1084 496 q 1104 513 1102 505 q 1106 524 1106 521 q 1067 584 1106 549 q 956 630 1021 630 q 921 629 941 630 q 900 604 900 627 q 926 570 900 570 l 950 572 q 1045 521 1011 572 q 1079 496 1058 496 m 1059 -218 q 1129 -188 1100 -218 q 1158 -117 1158 -159 q 1109 33 1158 -83 l 1059 142 l 1008 33 q 959 -117 959 -83 q 988 -188 959 -159 q 1059 -218 1017 -218 z "},"*":{"ha":1356,"x_min":10,"x_max":1345,"o":"m 677 -223 q 972 -156 833 -223 q 1198 25 1103 -93 q 1345 444 1345 210 q 1277 735 1345 598 q 1095 966 1210 872 q 677 1112 914 1112 q 386 1043 524 1112 q 158 860 248 975 q 10 444 10 675 q 78 152 10 287 q 260 -77 145 16 q 677 -223 443 -223 m 315 865 l 305 865 q 289 868 298 865 q 273 880 279 872 q 267 902 267 888 q 281 930 267 911 q 284 936 284 935 q 288 938 284 937 q 397 995 336 995 q 476 965 441 995 q 511 917 511 935 q 473 880 511 880 q 444 893 456 880 q 397 918 422 918 q 338 881 363 918 q 315 865 328 865 m 1057 863 q 1020 890 1038 863 q 970 920 989 920 q 924 893 939 920 q 896 880 905 880 q 854 917 854 880 q 866 944 854 932 q 868 946 867 944 q 871 949 869 949 l 897 971 q 968 996 945 996 q 1051 963 1006 996 q 1098 902 1095 930 q 1090 880 1097 888 q 1074 867 1083 871 q 1057 863 1065 863 m 365 459 q 301 498 324 459 q 278 587 278 537 q 292 650 278 618 q 390 734 326 734 q 453 696 431 734 q 475 616 475 658 q 464 545 475 576 q 365 459 431 459 m 996 459 q 924 500 958 459 q 886 609 887 546 q 909 695 886 656 q 974 734 932 734 q 1046 694 1014 734 q 1084 579 1084 646 q 1061 497 1084 536 q 996 459 1038 459 m 680 -124 q 582 -72 625 -124 q 515 146 515 9 q 546 307 515 238 q 680 417 595 417 q 777 366 734 417 q 844 146 844 283 q 812 -14 844 55 q 680 -124 762 -124 z "},"+":{"ha":1356,"x_min":10,"x_max":1345,"o":"m 677 1112 q 524 1094 597 1112 q 383 1044 450 1076 q 260 964 317 1011 q 157 860 203 918 q 78 736 111 802 q 28 595 45 669 q 10 444 10 521 q 28 290 10 364 q 78 150 45 216 q 157 26 111 83 q 260 -77 203 -31 q 383 -155 317 -123 q 524 -205 450 -188 q 677 -223 597 -223 q 830 -205 756 -223 q 970 -155 904 -188 q 1094 -77 1037 -123 q 1198 26 1151 -31 q 1277 150 1244 83 q 1327 290 1310 216 q 1345 444 1345 364 q 1327 595 1345 521 q 1277 736 1310 669 q 1198 860 1244 802 q 1094 964 1151 918 q 970 1044 1037 1011 q 830 1094 904 1076 q 677 1112 756 1112 m 361 460 q 407 446 386 460 q 440 406 427 431 q 452 353 452 382 q 440 299 452 324 q 407 260 427 274 q 361 246 386 246 q 315 260 336 246 q 282 299 294 274 q 269 353 269 324 q 282 406 269 382 q 315 446 294 431 q 361 460 336 460 m 988 460 q 1035 446 1015 460 q 1067 406 1055 431 q 1080 353 1080 382 q 1067 299 1080 324 q 1035 260 1055 274 q 988 246 1015 246 q 943 260 964 246 q 910 299 922 274 q 898 353 898 324 q 910 406 898 382 q 943 446 922 431 q 988 460 964 460 m 922 549 q 930 571 922 563 q 955 584 939 579 q 989 591 970 588 l 1010 591 q 1070 577 1040 588 q 1117 549 1099 567 q 1122 547 1118 548 q 1138 527 1131 537 q 1145 502 1145 517 q 1131 477 1142 487 q 1105 468 1120 468 q 1093 472 1098 468 q 1083 478 1087 475 q 1076 486 1078 481 q 1062 499 1069 493 q 1028 513 1044 511 q 997 515 1012 515 q 972 511 982 514 q 960 509 964 509 q 932 520 943 509 q 922 549 922 532 m 254 468 q 237 474 245 468 q 223 488 229 479 q 217 508 217 496 q 224 528 217 518 q 241 547 232 537 q 245 551 244 548 q 292 577 263 567 q 352 591 321 588 l 371 591 q 412 582 395 588 q 432 568 426 577 q 439 548 438 559 q 436 528 439 537 q 423 514 432 519 q 402 509 414 509 q 395 509 398 509 q 389 511 392 509 q 380 512 386 512 q 336 514 353 517 q 307 503 318 511 q 287 486 296 496 q 277 478 282 481 q 267 471 272 474 q 254 468 262 468 m 496 12 q 499 23 496 16 q 506 35 503 30 q 521 43 513 40 q 526 46 522 45 q 602 80 562 68 q 684 92 642 92 q 758 80 720 92 q 830 45 796 68 q 831 43 831 45 q 843 36 838 40 q 851 25 848 31 q 854 11 854 18 q 852 -7 854 -1 q 845 -19 850 -13 q 823 -30 833 -29 q 803 -25 812 -31 q 781 -14 793 -20 q 759 -1 769 -5 q 661 15 709 20 q 564 -18 612 11 q 562 -19 564 -19 q 552 -24 556 -22 q 542 -30 547 -26 q 532 -33 537 -33 q 511 -26 519 -33 q 499 -11 503 -20 q 496 12 496 -1 z "},",":{"ha":1356,"x_min":14,"x_max":1345,"o":"m 679 119 q 962 375 867 254 q 1049 578 1049 485 q 1043 628 1049 604 q 981 723 1026 687 q 868 764 935 758 q 845 766 855 766 q 774 752 805 766 q 719 716 743 739 q 679 662 695 693 q 638 716 663 694 q 581 752 614 739 q 507 764 548 764 q 414 745 454 764 q 316 620 338 709 q 311 574 311 597 q 402 369 311 477 q 679 119 493 261 m 679 1108 q 1006 1022 847 1108 q 1255 777 1165 937 q 1345 441 1345 616 q 1258 111 1345 269 q 1012 -135 1171 -47 q 679 -223 853 -223 q 348 -135 507 -223 q 102 111 189 -47 q 14 441 14 269 q 104 777 14 616 q 352 1022 193 937 q 679 1108 511 1108 z "},"-":{"ha":1356,"x_min":321,"x_max":1042,"o":"m 755 1100 q 762 1097 758 1100 q 765 1090 765 1094 q 762 1083 765 1086 q 755 1080 758 1080 q 747 1083 750 1080 q 745 1090 745 1086 q 747 1097 745 1094 q 755 1100 750 1100 m 718 1085 l 645 1085 q 641 1086 642 1085 q 640 1090 640 1087 q 641 1093 640 1092 q 645 1095 642 1095 l 718 1095 q 721 1093 719 1095 q 722 1090 722 1092 q 721 1086 722 1087 q 718 1085 719 1085 m 856 1105 l 922 1105 q 969 1086 949 1105 q 989 1038 989 1066 l 989 -163 q 969 -211 989 -191 q 922 -231 949 -231 l 438 -231 q 391 -211 410 -231 q 371 -163 371 -191 l 371 1038 q 391 1086 371 1066 q 438 1105 410 1105 l 507 1105 l 507 1093 q 517 1068 507 1078 q 545 1059 528 1059 l 819 1059 q 845 1068 833 1059 q 856 1093 856 1078 l 856 1105 m 1031 1039 q 1000 1116 1031 1084 q 923 1147 968 1147 l 437 1147 q 361 1116 393 1147 q 330 1039 330 1084 l 330 955 l 328 955 q 325 954 326 955 q 324 949 324 952 l 324 906 q 325 902 324 903 q 328 901 326 901 l 330 901 l 330 854 l 329 854 q 323 851 326 854 q 321 844 321 848 l 321 763 q 323 758 321 760 q 329 755 326 755 l 330 755 l 330 724 q 324 721 326 724 q 321 715 321 718 l 321 631 q 324 625 321 627 q 330 623 326 623 l 330 -163 q 361 -240 330 -208 q 437 -271 393 -271 l 923 -271 q 1000 -240 968 -271 q 1031 -163 1031 -208 l 1031 659 l 1032 659 q 1039 662 1037 659 q 1042 668 1042 664 l 1042 811 q 1039 818 1042 816 q 1032 821 1037 821 l 1031 821 l 1031 1039 z "},".":{"ha":1356,"x_min":10,"x_max":1342,"o":"m 675 1108 q 1003 1022 844 1108 q 1252 776 1162 937 q 1342 441 1342 616 q 1254 111 1342 269 q 1008 -136 1166 -47 q 675 -224 849 -224 q 345 -136 503 -224 q 98 111 186 -47 q 10 441 10 269 q 100 776 10 616 q 348 1022 189 937 q 675 1108 507 1108 m 926 187 q 930 214 933 200 q 913 236 926 228 q 363 299 688 373 q 341 283 349 296 q 336 256 334 271 q 352 235 340 242 q 378 231 364 227 q 877 175 676 297 q 904 171 890 168 q 926 187 918 174 m 994 342 q 1000 375 1004 357 q 980 403 996 392 q 343 478 685 568 q 317 456 326 471 q 314 422 309 441 q 335 396 319 404 q 369 393 351 388 q 662 415 508 433 q 934 327 815 397 q 967 321 950 317 q 994 342 985 326 m 1001 503 q 1041 497 1020 492 q 1074 521 1061 502 q 1080 561 1085 541 q 1055 593 1074 582 q 679 701 889 686 q 311 669 469 717 q 280 644 290 662 q 276 603 270 625 q 301 572 283 582 q 342 568 320 562 q 668 596 481 609 q 1001 503 856 583 z "},"/":{"ha":1356,"x_min":347,"x_max":1005,"o":"m 922 -271 q 977 -249 954 -271 q 999 -194 999 -227 l 999 751 l 1005 751 l 1005 848 l 999 848 l 999 1067 q 977 1122 999 1099 q 922 1144 954 1144 l 429 1144 q 374 1122 397 1144 q 351 1067 351 1099 l 351 949 l 347 949 l 347 825 l 351 825 l 351 776 l 347 776 l 347 707 q 350 705 349 705 l 351 705 l 351 -194 q 374 -249 351 -227 q 429 -271 397 -271 l 922 -271 m 945 -203 l 406 -203 q 371 -189 386 -203 q 356 -153 356 -174 l 356 1015 q 371 1050 356 1035 q 406 1065 385 1065 l 945 1065 q 980 1050 965 1065 q 994 1015 994 1036 l 994 -154 q 979 -190 994 -176 q 945 -203 965 -203 z "},":":{"ha":1356,"x_min":10,"x_max":1342,"o":"m 634 399 l 581 399 l 581 661 l 431 661 l 261 385 l 261 311 l 475 311 l 475 220 l 581 220 l 581 311 l 634 311 l 634 399 m 475 568 l 475 399 l 370 399 l 473 568 l 475 568 m 939 661 l 800 479 l 799 479 l 799 661 l 684 661 l 684 220 l 799 220 l 799 412 l 800 412 l 947 220 l 1096 220 l 905 452 l 1080 661 l 939 661 m 675 1108 q 1003 1022 844 1108 q 1252 776 1162 937 q 1342 441 1342 616 q 1254 111 1342 269 q 1008 -136 1166 -47 q 675 -224 849 -224 q 345 -136 503 -224 q 98 111 186 -47 q 10 441 10 269 q 100 776 10 616 q 348 1022 189 937 q 675 1108 507 1108 z "},";":{"ha":1356,"x_min":10,"x_max":1342,"o":"m 658 106 q 932 199 823 112 q 941 216 941 205 q 920 235 940 235 l 903 231 q 660 176 791 176 q 372 275 501 188 l 357 280 q 340 264 341 280 q 348 250 341 256 q 658 106 471 122 m 960 164 q 1008 222 989 165 q 1018 275 1018 251 q 965 305 1018 305 q 874 267 878 299 q 889 253 874 253 l 947 260 q 967 253 967 258 q 960 219 967 240 q 950 190 954 199 q 946 178 946 182 q 960 164 946 164 m 588 292 q 732 356 675 292 q 755 322 741 337 q 792 296 781 296 q 807 303 798 296 q 836 328 817 310 q 865 352 856 345 q 873 366 873 359 q 870 377 873 373 q 866 384 866 380 q 847 414 856 398 q 838 607 838 430 q 661 785 838 785 q 476 651 507 777 q 490 634 476 634 l 571 623 q 588 640 583 629 q 655 694 603 690 q 713 644 707 694 l 715 595 q 462 426 462 595 q 499 326 462 359 q 588 292 536 292 m 640 377 q 587 440 587 384 q 715 527 587 527 l 715 502 q 714 458 716 479 q 697 412 711 437 q 652 379 682 386 l 640 377 m 675 1108 q 1003 1022 844 1108 q 1252 776 1162 937 q 1342 441 1342 616 q 1254 111 1342 269 q 1008 -136 1166 -47 q 675 -224 849 -224 q 345 -136 503 -224 q 98 111 186 -47 q 10 441 10 269 q 100 776 10 616 q 348 1022 189 937 q 675 1108 507 1108 z "},"<":{"ha":1356,"x_min":14,"x_max":1345,"o":"m 666 568 l 612 568 l 612 456 l 661 456 q 727 467 709 456 q 746 516 746 477 q 731 559 746 549 q 666 568 715 568 m 901 810 l 459 810 q 355 766 398 810 q 313 663 313 723 l 313 222 q 355 118 313 161 q 459 75 398 75 l 901 75 q 1004 118 960 75 q 1047 222 1047 161 l 1047 663 q 1004 766 1047 723 q 901 810 960 810 m 686 391 l 612 391 l 612 252 l 533 252 l 533 633 l 677 633 q 782 615 736 633 q 827 514 827 597 q 785 411 827 432 q 686 391 743 391 m 679 1108 q 1006 1022 847 1108 q 1255 777 1165 937 q 1345 441 1345 616 q 1258 111 1345 269 q 1012 -135 1171 -47 q 679 -223 853 -223 q 348 -135 507 -223 q 102 111 189 -47 q 14 441 14 269 q 104 777 14 616 q 352 1022 193 937 q 679 1108 511 1108 z "},"=":{"ha":1356,"x_min":10,"x_max":1342,"o":"m 675 1108 q 1003 1022 844 1108 q 1252 776 1162 937 q 1342 441 1342 616 q 1254 111 1342 269 q 1008 -136 1166 -47 q 675 -224 849 -224 q 345 -136 503 -224 q 98 111 186 -47 q 10 441 10 269 q 100 776 10 616 q 348 1022 189 937 q 675 1108 507 1108 m 906 117 q 943 146 936 117 l 1065 734 q 1058 755 1066 747 q 1040 762 1049 762 q 309 491 1036 762 q 291 465 291 484 q 310 441 293 448 l 487 387 l 558 172 q 586 153 565 153 q 604 161 596 153 l 704 256 l 884 123 q 906 117 895 117 m 583 225 l 529 404 q 917 650 915 650 q 927 643 927 650 q 927 640 927 642 q 595 338 926 638 l 583 225 z "},">":{"ha":1356,"x_min":10,"x_max":1342,"o":"m 675 1108 q 1003 1022 844 1108 q 1252 776 1162 937 q 1342 441 1342 616 q 1254 111 1342 269 q 1008 -136 1166 -47 q 675 -224 849 -224 q 345 -136 503 -224 q 98 111 186 -47 q 10 441 10 269 q 100 776 10 616 q 348 1022 189 937 q 675 1108 507 1108 m 677 21 q 945 155 840 21 q 1017 368 1017 250 q 873 645 1017 545 q 841 665 858 656 q 678 709 761 709 q 434 604 533 709 q 431 827 431 669 q 383 867 431 867 q 338 827 338 867 l 338 353 q 370 217 341 282 q 541 50 425 104 q 677 21 608 21 m 680 116 q 485 210 564 116 q 434 320 434 277 l 433 370 q 550 576 433 507 q 676 614 605 614 q 904 463 832 614 q 924 363 924 414 q 850 188 924 260 q 680 116 777 116 m 537 298 q 606 370 603 298 q 541 439 606 435 q 478 408 502 439 q 468 370 468 391 q 492 317 468 336 q 537 298 516 298 z "},"?":{"ha":1356,"x_min":10,"x_max":1342,"o":"m 675 1108 q 1003 1022 844 1108 q 1252 776 1162 937 q 1342 441 1342 616 q 1254 111 1342 269 q 1008 -136 1166 -47 q 675 -224 849 -224 q 345 -136 503 -224 q 98 111 186 -47 q 10 441 10 269 q 100 776 10 616 q 348 1022 189 937 q 675 1108 507 1108 m 676 38 l 706 153 q 791 143 752 143 q 859 152 828 143 q 951 249 922 169 q 962 311 962 282 q 888 417 962 385 q 977 541 970 431 q 837 680 977 633 l 865 794 l 795 812 l 768 700 q 712 713 740 707 l 739 825 l 670 843 l 642 729 l 596 739 l 596 739 l 500 763 l 482 688 l 532 677 q 566 640 566 667 l 532 505 l 541 503 l 538 503 q 532 505 536 505 l 487 322 q 464 304 481 304 q 405 317 455 305 l 370 237 l 511 201 l 481 87 l 551 69 l 580 184 q 635 170 608 176 l 608 56 l 676 38 m 728 245 q 603 267 684 245 l 640 422 l 659 417 q 819 314 819 386 q 817 296 819 305 q 777 251 806 258 q 728 245 749 245 m 760 473 q 659 492 715 473 l 693 631 q 707 628 699 629 q 841 538 841 604 q 804 479 836 487 q 760 473 779 473 z "},"@":{"ha":1356,"x_min":10,"x_max":1342,"o":"m 675 1108 q 1003 1022 844 1108 q 1252 776 1162 937 q 1342 441 1342 616 q 1254 111 1342 269 q 1008 -136 1166 -47 q 675 -224 849 -224 q 345 -136 503 -224 q 98 111 186 -47 q 10 441 10 269 q 100 776 10 616 q 348 1022 189 937 q 675 1108 507 1108 m 397 273 q 500 326 478 326 l 577 315 l 576 343 q 644 496 576 435 q 823 569 719 569 q 781 680 820 633 q 560 786 699 786 q 309 607 363 786 q 300 545 300 575 q 401 369 300 444 q 415 345 413 358 q 410 328 415 340 q 403 300 405 315 q 397 273 401 285 m 468 569 q 436 601 436 570 q 470 632 438 632 q 500 599 500 630 q 468 569 499 569 m 671 569 q 637 600 639 569 q 670 632 637 630 q 701 601 701 631 q 671 569 701 570 m 981 131 q 976 154 981 146 q 970 170 970 162 q 991 212 970 189 q 1055 351 1055 266 q 1016 461 1055 409 q 824 546 945 546 q 696 507 759 546 q 604 345 604 444 q 670 208 604 270 q 823 145 736 145 q 874 154 849 145 q 919 162 900 162 q 981 131 958 154 m 727 377 q 703 410 703 377 q 727 430 703 430 q 753 404 753 430 q 727 377 753 377 m 892 378 q 866 404 866 379 q 892 430 866 429 q 918 403 918 429 q 892 378 916 379 z "},"A":{"ha":1356,"x_min":14,"x_max":1339,"o":"m 852 252 l 852 361 q 821 437 852 406 q 743 469 789 469 q 666 437 698 469 q 634 361 634 406 q 666 283 634 315 q 743 252 698 252 q 817 279 785 252 l 817 252 l 852 252 m 888 197 l 804 232 q 744 218 777 218 q 642 261 684 218 q 600 363 600 303 q 642 465 600 422 q 744 508 684 508 q 846 465 804 508 q 888 363 888 422 l 888 197 m 142 276 q 202 301 178 276 q 227 361 227 326 q 202 422 227 397 q 142 447 178 447 q 82 422 107 447 q 57 361 57 397 q 82 301 57 326 q 142 276 107 276 m 271 234 l 227 234 l 227 267 q 142 234 192 234 q 52 271 89 234 q 14 361 14 309 q 52 452 14 414 q 142 490 89 490 q 233 452 195 490 q 271 361 271 414 l 271 234 m 347 234 l 304 234 l 304 532 l 347 532 l 347 234 m 304 234 m 1339 234 l 1297 234 l 1297 532 l 1339 532 l 1339 234 m 1297 234 m 509 234 q 418 271 456 234 q 380 361 380 309 q 418 452 380 414 q 509 490 456 490 q 600 452 562 490 l 569 422 q 509 447 544 447 q 449 422 473 447 q 424 361 424 397 q 449 301 424 326 q 509 276 473 276 q 569 301 544 276 l 600 271 q 509 234 562 234 m 965 234 l 922 234 l 922 532 l 965 532 l 965 490 l 1007 490 l 1007 447 l 965 447 l 965 234 m 1218 382 q 1135 447 1195 447 q 1053 382 1076 447 l 1218 382 m 1135 234 q 1045 271 1082 234 q 1007 361 1007 309 q 1045 452 1007 414 q 1135 490 1082 490 q 1226 452 1188 490 q 1263 361 1263 414 q 1261 340 1263 351 l 1053 340 q 1135 276 1076 276 q 1200 307 1174 276 l 1251 307 q 1135 234 1211 234 m 743 287 q 691 308 713 287 q 669 361 669 330 q 691 413 669 391 q 743 435 713 435 q 795 413 774 435 q 817 361 817 391 q 795 308 817 330 q 743 287 774 287 z "},"B":{"ha":1356,"x_min":10,"x_max":1339,"o":"m 256 688 l 73 688 l 123 918 l 298 918 q 439 819 439 918 q 256 688 439 688 m 726 688 l 545 688 l 594 918 l 769 918 q 909 819 909 918 q 726 688 909 692 m 193 342 l 10 342 l 60 572 l 235 572 q 376 472 376 572 q 193 342 376 342 m 663 342 l 481 342 l 531 572 l 706 572 q 846 472 846 572 q 663 342 846 342 m 1156 483 l 974 483 l 1024 713 l 1199 713 q 1339 612 1339 713 q 1156 483 1339 483 m 1088 122 l 906 122 l 956 352 l 1131 352 q 1272 252 1272 352 q 1088 122 1272 122 m 596 -18 l 414 -18 l 463 212 l 638 212 q 779 112 779 212 q 596 -18 779 -14 z "},"C":{"ha":1359,"x_min":338,"x_max":1018,"o":"m 1007 -145 l 349 -145 l 349 1024 l 1007 1024 l 1007 -145 m 945 -271 q 997 -246 976 -271 q 1018 -187 1018 -222 l 1018 1066 q 997 1125 1018 1101 q 945 1149 976 1149 l 411 1149 q 359 1125 380 1149 q 338 1066 338 1101 l 338 -187 q 359 -246 338 -222 q 411 -271 380 -271 l 945 -271 m 711 -237 l 643 -237 q 624 -229 632 -237 q 616 -210 616 -221 q 624 -190 616 -198 q 643 -182 632 -182 l 711 -182 q 731 -190 723 -182 q 739 -210 739 -198 q 731 -229 739 -221 q 711 -237 723 -237 m 589 1074 q 582 1077 585 1074 q 579 1084 579 1080 q 583 1092 579 1088 q 589 1095 586 1095 q 597 1092 593 1095 q 600 1084 600 1088 q 597 1077 600 1080 q 589 1074 593 1074 m 734 1095 q 744 1085 744 1095 q 734 1074 744 1074 l 636 1074 q 626 1085 626 1074 q 636 1095 626 1095 l 734 1095 m 797 1071 q 787 1075 791 1071 q 783 1084 783 1078 q 788 1094 783 1090 q 797 1098 792 1098 q 806 1094 802 1098 q 810 1084 810 1090 q 806 1075 810 1078 q 797 1071 802 1071 m 556 1074 q 549 1077 552 1074 q 546 1084 546 1080 q 549 1092 546 1088 q 556 1095 552 1095 q 564 1092 560 1095 q 567 1084 567 1088 q 564 1077 567 1080 q 556 1074 560 1074 z "},"D":{"ha":1356,"x_min":14,"x_max":1345,"o":"m 678 848 q 519 816 593 848 q 389 728 446 785 q 301 598 333 672 q 270 441 270 525 q 301 282 270 355 q 389 152 333 208 q 519 64 446 96 q 678 33 593 33 q 836 64 762 33 q 966 152 909 96 q 1054 282 1022 208 q 1085 441 1085 355 q 1054 598 1085 525 q 966 728 1022 672 q 836 816 909 785 q 678 848 762 848 m 985 611 q 1017 529 1006 572 l 881 529 q 859 611 873 572 l 985 611 m 843 381 l 804 498 l 829 509 l 857 418 l 878 476 l 905 476 l 926 418 l 954 509 l 977 498 l 939 381 l 915 371 l 892 451 l 867 371 l 843 381 m 846 351 q 821 269 838 309 l 695 269 l 695 351 l 846 351 m 926 688 q 962 646 946 668 l 844 646 q 747 785 809 723 q 926 688 850 764 m 695 786 q 806 646 766 725 l 695 646 l 695 786 m 695 611 l 821 611 q 846 529 838 572 l 695 529 l 695 611 m 660 785 l 660 646 l 550 646 q 660 785 589 724 m 510 529 q 534 611 518 572 l 660 611 l 660 529 l 510 529 m 551 498 l 512 381 l 488 371 l 463 451 l 440 371 l 416 381 l 378 498 l 401 509 l 429 418 l 450 476 l 477 476 l 498 418 l 526 509 l 551 498 m 429 688 q 608 785 505 764 q 512 646 546 723 l 393 646 q 429 688 409 668 m 370 611 l 497 611 q 474 529 483 572 l 338 529 q 370 611 349 572 m 370 269 q 338 351 349 308 l 474 351 q 497 269 483 309 l 370 269 m 429 192 q 393 235 409 212 l 511 235 q 608 95 546 157 q 429 192 505 116 m 660 95 q 549 235 589 156 l 660 235 l 660 95 m 660 269 l 534 269 q 510 351 518 309 l 660 351 l 660 269 m 678 451 l 653 371 l 629 381 l 591 498 l 614 509 l 643 418 l 664 476 l 691 476 l 712 418 l 739 509 l 764 498 l 726 381 l 701 371 l 678 451 m 695 94 l 695 235 l 806 235 q 695 94 767 156 m 926 192 q 747 95 850 116 q 844 235 809 157 l 962 235 q 926 192 946 212 m 985 269 l 859 269 q 881 351 873 309 l 1017 351 q 985 269 1006 308 m 679 1108 q 1006 1022 847 1108 q 1255 777 1165 937 q 1345 441 1345 616 q 1258 111 1345 269 q 1012 -135 1171 -47 q 679 -223 853 -223 q 348 -135 507 -223 q 102 111 189 -47 q 14 441 14 269 q 104 777 14 616 q 352 1022 193 937 q 679 1108 511 1108 z "},"E":{"ha":1356,"x_min":14,"x_max":1345,"o":"m 653 56 q 758 108 673 56 q 994 297 911 205 q 1081 500 1081 391 q 1026 666 1081 591 q 879 785 971 741 q 674 830 787 830 q 470 785 562 830 q 322 666 377 741 q 268 500 268 591 q 363 287 268 378 q 608 174 458 196 q 629 168 618 173 q 643 155 640 163 q 646 136 646 146 q 637 71 646 123 q 647 56 637 56 l 653 56 m 578 395 q 598 397 595 395 q 600 492 600 399 q 598 585 600 583 q 592 588 595 588 q 558 585 560 588 q 555 492 555 583 q 558 397 555 399 q 578 395 560 395 m 774 395 q 794 397 791 395 q 796 492 796 399 q 794 585 796 583 q 788 588 791 588 q 754 585 757 588 q 751 475 751 583 q 669 586 670 585 q 667 587 668 587 l 650 588 q 630 585 632 588 q 628 492 628 583 q 630 397 628 399 q 650 395 632 395 q 671 402 671 395 l 671 509 l 755 396 q 774 395 758 395 m 523 395 q 531 417 531 395 q 523 439 531 439 l 446 439 l 446 581 q 424 588 446 588 q 401 581 401 588 l 401 402 q 409 395 401 395 l 523 395 m 946 395 q 954 417 954 395 q 946 439 954 439 l 868 439 l 868 469 q 951 472 949 469 q 954 492 954 474 q 946 513 954 513 l 868 513 l 868 543 l 946 543 q 954 566 954 543 q 946 588 954 588 q 826 586 829 588 q 824 492 824 584 q 826 397 824 399 q 832 395 829 395 l 946 395 m 679 1108 q 1006 1022 847 1108 q 1255 777 1165 937 q 1345 441 1345 616 q 1258 111 1345 269 q 1012 -135 1171 -47 q 679 -223 853 -223 q 348 -135 507 -223 q 102 111 189 -47 q 14 441 14 269 q 104 777 14 616 q 352 1022 193 937 q 679 1108 511 1108 z "},"F":{"ha":1356,"x_min":14,"x_max":1345,"o":"m 679 38 q 883 93 791 38 q 1030 240 976 147 q 1085 446 1085 332 q 1030 650 1085 557 q 883 797 976 743 q 679 852 791 852 q 473 797 566 852 q 326 650 381 743 q 271 446 271 557 q 326 240 271 332 q 473 93 381 147 q 679 38 566 38 m 677 76 q 492 126 576 76 q 358 260 408 176 q 308 446 308 344 q 358 631 308 548 q 492 765 408 715 q 677 815 576 815 q 863 765 779 815 q 997 631 947 715 q 1047 446 1047 548 q 997 260 1047 344 q 863 126 947 176 q 677 76 779 76 m 536 187 q 621 245 608 187 q 624 519 623 257 q 637 536 624 534 l 840 577 q 852 566 850 577 l 852 387 q 833 368 848 372 l 809 363 q 732 296 732 351 l 734 288 q 750 256 737 270 q 796 239 766 239 q 867 269 846 239 q 881 307 880 287 l 881 689 q 865 703 876 703 l 859 703 q 758 683 846 700 q 616 654 682 667 q 594 634 599 652 l 593 343 q 575 317 593 320 l 551 311 q 505 297 535 311 q 475 245 475 281 q 479 225 475 232 q 536 187 493 187 m 679 1108 q 1006 1022 847 1108 q 1255 777 1165 937 q 1345 441 1345 616 q 1258 111 1345 269 q 1012 -135 1171 -47 q 679 -223 853 -223 q 348 -135 507 -223 q 102 111 189 -47 q 14 441 14 269 q 104 777 14 616 q 352 1022 193 937 q 679 1108 511 1108 z "},"G":{"ha":1356,"x_min":14,"x_max":1345,"o":"m 992 153 q 1063 168 1042 153 q 1084 218 1084 183 l 1084 669 q 1064 716 1084 696 q 1017 735 1044 735 l 345 735 l 345 734 q 298 715 317 734 q 278 669 278 696 l 278 218 q 298 172 278 191 q 345 153 317 153 l 992 153 m 680 507 l 393 719 l 968 719 l 680 507 m 384 184 l 384 553 l 651 370 l 384 184 m 969 169 l 391 169 l 665 360 q 680 353 674 353 q 694 360 682 353 l 969 169 m 975 184 l 708 370 l 975 553 l 975 184 m 679 1108 q 1006 1022 847 1108 q 1255 777 1165 937 q 1345 441 1345 616 q 1258 111 1345 269 q 1012 -135 1171 -47 q 679 -223 853 -223 q 348 -135 507 -223 q 102 111 189 -47 q 14 441 14 269 q 104 777 14 616 q 352 1022 193 937 q 679 1108 511 1108 z "},"H":{"ha":1357,"x_min":20,"x_max":1336,"o":"m 224 -224 l 224 -13 l 176 -13 l 176 -98 l 69 -98 l 69 -13 l 21 -13 l 21 -224 l 69 -224 l 69 -136 l 176 -136 l 176 -224 l 224 -224 m 363 -227 q 450 -197 423 -227 q 463 -140 463 -181 l 463 -13 l 415 -13 l 415 -140 q 368 -193 415 -193 q 323 -180 334 -193 q 312 -140 312 -168 l 312 -13 l 264 -13 l 264 -140 q 277 -197 264 -181 q 363 -227 304 -227 m 628 -136 l 559 -136 l 593 -55 l 628 -136 m 718 -224 l 621 -13 l 570 -13 l 473 -224 l 524 -224 l 544 -174 l 644 -174 l 665 -224 l 718 -224 m 974 -224 l 1045 -13 l 996 -13 l 946 -176 l 895 -13 l 838 -13 l 793 -176 l 740 -13 l 688 -13 l 764 -224 l 823 -224 l 866 -66 l 915 -224 l 974 -224 m 1243 -224 l 1243 -187 l 1164 -187 q 1109 -140 1109 -187 l 1109 -136 l 1243 -136 l 1243 -99 l 1109 -99 q 1164 -50 1112 -50 l 1243 -50 l 1243 -13 l 1163 -13 q 1055 -117 1055 -13 q 1090 -205 1055 -180 q 1124 -221 1107 -218 q 1162 -224 1141 -224 l 1243 -224 m 1336 -224 l 1336 -13 l 1286 -13 l 1286 -224 l 1336 -224 m 584 315 q 475 372 579 315 q 182 565 271 481 l 166 581 q 115 709 115 630 q 165 847 115 774 q 222 916 187 878 l 281 838 q 587 321 454 610 q 588 319 588 321 q 584 315 588 315 m 305 100 q 218 131 263 100 q 140 223 174 163 l 544 237 l 544 237 q 549 233 548 236 q 446 160 549 227 q 305 100 353 100 m 545 267 l 248 267 l 237 268 q 148 294 196 271 q 34 428 71 331 q 20 507 20 462 q 32 579 20 540 l 125 528 q 553 276 383 388 q 555 271 555 273 q 550 267 555 267 l 545 267 m 639 349 l 634 351 q 385 825 429 648 q 376 897 376 865 q 411 1005 376 954 q 543 1083 452 1066 q 582 1090 575 1089 l 599 1056 q 658 714 649 956 q 659 650 659 684 q 643 353 659 526 q 639 349 642 350 m 717 349 q 716 349 716 349 q 714 350 715 349 q 713 354 713 351 q 696 646 696 522 q 700 770 696 682 q 722 940 703 857 q 757 1056 740 1022 l 774 1090 q 904 1047 867 1075 q 966 968 949 1013 q 979 901 979 931 q 899 644 979 799 q 722 351 822 496 q 717 349 720 349 m 1049 99 l 1021 102 q 808 229 945 127 q 807 232 807 230 q 811 237 807 236 l 1216 222 q 1049 99 1143 99 m 1061 267 l 804 267 q 801 273 801 269 q 802 275 801 275 q 1017 408 896 338 q 1324 580 1125 471 q 1335 509 1335 542 q 1323 432 1335 465 q 1208 294 1286 332 q 1135 271 1166 275 q 1061 267 1110 267 m 774 316 l 770 317 l 769 320 l 769 322 q 1075 838 903 610 l 1134 916 l 1152 898 q 1240 707 1240 802 q 1190 581 1240 633 q 883 372 1095 486 q 774 316 777 316 z "},"I":{"ha":1356,"x_min":14,"x_max":1345,"o":"m 782 669 q 701 646 708 661 l 701 262 q 708 256 705 256 l 1045 256 q 1154 352 1119 256 l 1154 390 l 1143 419 q 1045 488 1106 488 l 1027 488 q 994 482 1020 488 l 991 482 q 976 541 985 521 q 782 669 911 669 m 671 640 q 663 629 665 636 q 659 376 663 528 q 663 269 663 302 q 671 256 663 262 l 679 256 q 689 267 687 259 q 694 361 689 300 q 689 627 690 451 q 679 640 689 634 l 671 640 m 623 611 q 621 352 623 540 q 623 271 623 308 q 625 265 623 269 q 623 262 623 265 q 631 256 629 256 l 640 256 l 644 257 q 652 367 648 257 q 646 611 648 560 l 640 617 l 631 617 l 623 611 m 507 584 l 500 364 q 503 345 500 345 q 513 256 503 256 l 518 256 l 526 262 l 531 364 q 526 583 531 393 q 518 589 521 589 l 513 589 l 507 584 m 545 578 q 541 376 545 541 l 539 363 q 545 265 545 304 q 552 256 545 259 l 558 256 l 566 262 l 571 364 l 566 576 q 554 585 563 584 l 545 578 m 468 576 l 462 364 q 465 340 462 340 q 475 256 465 256 l 481 256 q 493 364 487 256 q 485 566 487 547 q 487 569 487 566 q 477 583 483 581 l 475 583 l 468 576 m 589 576 q 579 370 583 576 q 586 262 582 353 q 597 256 587 256 l 599 256 l 606 262 q 612 363 606 275 l 606 571 q 593 578 603 578 l 589 576 m 435 565 q 429 553 431 565 l 424 363 q 426 349 424 349 q 435 256 426 259 l 443 256 q 454 364 446 259 q 448 557 450 416 q 439 565 441 565 l 435 565 m 397 528 q 385 363 391 528 q 387 352 385 352 q 398 256 390 256 l 401 256 q 414 361 410 256 q 406 524 414 387 q 401 528 403 528 l 397 528 m 321 473 q 311 364 315 473 q 321 257 315 257 l 323 257 q 337 361 330 257 q 323 473 332 473 l 321 473 m 286 470 q 272 363 279 470 q 286 262 280 262 l 287 262 q 300 363 291 263 q 286 470 292 470 m 360 467 q 347 363 353 467 q 354 262 354 281 q 358 257 354 257 l 363 257 q 375 361 368 257 q 372 399 373 399 q 362 467 372 467 l 360 467 m 250 454 q 235 364 242 454 q 250 276 242 276 q 262 364 253 276 q 250 454 254 445 m 212 421 q 203 363 208 421 q 212 309 208 309 q 223 363 219 309 q 212 421 219 421 m 679 1108 q 1006 1022 847 1108 q 1255 777 1165 937 q 1345 441 1345 616 q 1258 111 1345 269 q 1012 -135 1171 -47 q 679 -223 853 -223 q 348 -135 507 -223 q 102 111 189 -47 q 14 441 14 269 q 104 777 14 616 q 352 1022 193 937 q 679 1108 511 1108 z "},"J":{"ha":1356,"x_min":14,"x_max":1345,"o":"m 1061 286 q 986 364 1045 306 q 954 407 956 395 l 954 410 q 966 442 954 422 q 1015 508 977 458 q 1062 575 1045 547 q 1085 633 1085 614 q 1084 641 1085 637 q 1052 653 1078 653 l 1048 653 q 954 651 1003 651 q 906 650 910 651 q 888 625 897 646 q 846 538 870 578 q 795 464 815 486 q 768 448 780 448 l 768 448 q 747 486 751 448 q 747 508 747 494 q 751 600 747 538 l 751 610 q 743 653 751 642 q 649 675 730 675 q 618 673 635 675 q 543 641 552 671 q 583 618 574 632 q 593 526 593 599 q 590 479 593 500 q 570 446 584 448 l 566 446 q 543 460 556 446 q 524 485 535 469 q 450 620 484 543 q 435 646 441 641 q 381 653 425 653 l 342 653 q 274 641 278 653 q 273 636 273 640 q 286 599 273 627 q 427 353 354 452 q 543 246 482 279 q 667 211 606 211 l 673 211 q 742 222 736 214 q 749 261 746 226 q 756 295 751 282 q 781 318 765 317 l 783 318 q 819 295 798 318 q 848 262 821 293 q 919 211 885 219 q 971 210 924 210 l 994 210 l 1017 211 q 1085 233 1081 211 q 1086 237 1086 236 q 1061 286 1086 254 m 679 1108 q 1006 1022 847 1108 q 1255 777 1165 937 q 1345 441 1345 616 q 1258 111 1345 269 q 1012 -135 1171 -47 q 679 -223 853 -223 q 348 -135 507 -223 q 102 111 189 -47 q 14 441 14 269 q 104 777 14 616 q 352 1022 193 937 q 679 1108 511 1108 z "},"K":{"ha":1356,"x_min":63,"x_max":1301,"o":"m 517 947 q 528 958 528 947 q 517 968 528 968 q 507 958 507 968 q 517 947 507 947 m 629 923 q 639 933 639 923 q 636 940 639 936 q 628 943 633 943 q 618 932 618 943 q 629 923 618 923 m 328 420 l 353 338 l 267 338 l 290 420 q 300 466 295 441 q 308 496 304 482 l 309 496 q 311 485 310 491 q 328 420 319 452 m 682 865 l 439 918 q 469 972 446 950 q 524 1002 492 994 q 511 1040 511 1038 q 515 1042 512 1042 q 531 1003 518 1042 q 557 1006 545 1006 q 635 981 598 1006 q 664 1009 661 1009 q 667 1006 667 1008 q 642 975 667 1004 q 677 926 667 956 q 685 888 685 907 q 682 865 685 876 m 688 685 l 681 686 q 659 711 659 691 q 685 831 659 715 q 711 853 690 853 q 734 840 727 853 q 739 826 739 833 q 713 707 739 823 q 701 689 711 695 q 688 685 695 685 m 371 754 q 348 767 356 754 q 343 782 343 774 q 369 901 343 785 q 381 918 372 912 q 395 922 388 922 q 419 910 411 922 q 423 896 423 903 q 398 777 423 893 q 371 754 393 754 m 669 499 q 738 441 735 499 q 662 377 738 381 q 632 379 642 377 l 632 495 q 669 499 642 499 m 581 637 l 1134 637 l 1134 774 l 892 774 q 873 783 881 774 q 865 802 865 791 l 865 1082 l 230 1082 l 230 637 l 429 637 q 441 694 433 653 q 421 699 432 696 q 404 711 410 701 q 399 728 399 719 q 438 908 399 731 l 679 855 l 641 680 q 628 662 638 669 q 612 657 621 657 q 587 662 609 657 l 581 637 m 1101 170 l 1204 170 l 1067 396 l 1197 563 l 1088 563 l 999 433 q 991 420 995 426 q 972 389 981 405 l 970 389 l 970 563 l 882 563 l 882 170 l 970 170 l 970 298 l 1004 340 l 1101 170 m 1134 -191 l 1134 73 l 230 73 l 230 -191 l 1134 -191 m 225 170 l 254 271 l 366 271 l 396 170 l 492 170 l 370 563 l 254 563 l 134 170 l 225 170 m 826 444 q 784 534 826 501 q 664 566 746 566 q 544 557 583 566 l 544 170 l 632 170 l 632 311 q 663 309 645 309 q 734 319 702 309 q 790 351 767 329 q 826 444 826 386 m 486 637 l 524 637 q 532 674 527 652 l 496 682 l 486 637 m 1223 637 q 1278 615 1255 637 q 1301 559 1300 592 l 1301 152 q 1278 96 1301 119 q 1223 73 1255 73 l 1189 73 l 1189 -205 q 1173 -244 1189 -229 q 1134 -260 1157 -260 l 230 -260 q 191 -244 207 -260 q 175 -205 175 -229 l 175 73 l 141 73 q 86 96 109 73 q 63 152 63 119 l 63 559 q 86 614 63 591 q 141 637 109 637 l 175 637 l 175 1082 q 191 1121 175 1105 q 230 1137 207 1137 l 892 1137 q 899 1137 895 1137 l 899 1137 q 900 1136 899 1136 q 905 1134 903 1135 l 907 1133 q 913 1128 910 1131 l 913 1128 l 1182 820 q 1189 802 1189 812 l 1189 637 l 1223 637 z "},"L":{"ha":1356,"x_min":17,"x_max":1333,"o":"m 306 151 q 510 236 425 151 q 595 439 595 320 q 510 644 595 559 q 306 728 425 728 q 101 644 186 728 q 17 439 17 559 q 101 236 17 320 q 306 151 186 151 m 374 313 l 294 313 l 294 566 l 317 566 l 317 336 l 374 336 l 374 313 m 214 497 q 189 507 199 497 q 179 532 179 517 q 189 556 179 546 q 214 566 199 566 q 238 556 228 566 q 248 532 248 546 q 238 507 248 517 q 214 497 228 497 m 306 198 q 135 269 209 198 q 64 440 64 342 q 135 611 64 540 q 306 682 205 682 l 317 681 l 317 659 l 306 659 q 151 595 218 659 q 86 440 86 528 q 151 285 86 352 q 306 221 218 221 q 455 279 393 221 q 524 425 517 337 l 524 429 l 375 429 l 375 450 l 547 450 l 547 440 q 477 269 547 342 q 306 198 402 198 m 991 256 l 725 256 l 725 631 l 812 631 l 812 329 l 991 329 l 991 256 m 1187 250 q 1002 444 1002 250 q 1187 637 1002 633 q 1331 575 1286 637 l 1278 526 q 1189 566 1254 566 q 1108 533 1131 566 q 1086 444 1086 501 q 1109 353 1086 383 q 1190 323 1132 323 q 1253 333 1227 323 l 1253 399 l 1182 399 l 1182 469 l 1333 469 l 1333 286 q 1187 250 1274 250 z "},"M":{"ha":1356,"x_min":10,"x_max":1344,"o":"m 677 -225 q 1149 -30 954 -225 q 1344 442 1344 165 q 1151 913 1344 717 q 677 1109 957 1109 q 205 913 401 1109 q 10 442 10 718 q 202 -26 10 165 q 677 -225 394 -218 m 1107 128 l 1061 128 l 1052 166 q 1024 255 1042 204 q 981 349 1006 306 q 857 429 941 423 l 853 429 q 700 271 776 429 l 677 222 l 654 271 q 612 347 631 321 q 501 429 554 429 l 497 429 q 373 349 414 423 q 330 255 348 306 q 302 166 312 204 l 293 128 l 248 128 l 489 921 l 675 302 l 678 302 l 865 921 l 1107 128 z "},"N":{"ha":1356,"x_min":14,"x_max":1343,"o":"m 315 369 l 315 587 l 251 587 l 251 424 l 124 587 l 14 587 l 14 369 l 77 369 l 77 534 l 207 369 l 315 369 m 536 366 q 607 385 593 366 q 621 436 621 400 l 621 520 q 607 570 621 556 q 536 590 593 590 l 427 590 q 355 570 370 590 q 345 553 349 564 q 341 478 341 543 q 345 402 341 413 q 355 385 349 392 q 427 366 370 366 l 536 366 m 549 422 l 429 421 q 406 425 410 421 q 401 478 401 429 q 406 531 401 527 q 481 535 410 535 q 556 531 552 535 q 561 478 561 527 q 559 429 561 435 q 549 422 558 423 m 715 369 l 715 587 l 648 587 l 648 369 l 715 369 m 931 369 l 797 484 l 916 587 l 827 587 l 715 482 l 836 369 l 931 369 m 1010 369 l 1010 587 l 943 587 l 943 369 l 1010 369 m 1343 369 l 1224 587 l 1141 587 l 1023 369 l 1097 369 l 1116 406 l 1245 406 l 1265 369 l 1343 369 m 1222 454 l 1139 454 l 1181 532 l 1222 454 z "},"O":{"ha":1356,"x_min":14,"x_max":1346,"o":"m 151 416 q 224 432 194 416 q 254 472 254 449 q 224 511 254 495 q 151 528 194 528 q 78 511 109 528 q 48 472 48 495 q 68 437 48 450 q 112 420 87 425 q 151 416 137 416 m 167 394 q 58 416 103 394 q 14 471 14 439 q 58 525 14 503 q 167 547 103 547 q 275 525 231 547 q 320 471 320 503 q 275 416 320 439 q 167 394 231 394 m 1177 416 q 1250 432 1220 416 q 1280 472 1280 449 q 1250 511 1280 495 q 1177 528 1220 528 q 1104 511 1135 528 q 1074 472 1074 495 q 1094 437 1074 450 q 1138 420 1114 425 q 1177 416 1163 416 m 1193 394 q 1084 416 1129 394 q 1040 471 1040 439 q 1084 525 1040 503 q 1193 547 1129 547 q 1301 525 1257 547 q 1346 471 1346 503 q 1301 416 1346 439 q 1193 394 1257 394 m 406 339 l 352 339 l 352 543 l 406 543 l 406 446 q 497 416 438 416 q 570 432 540 416 q 600 472 600 449 q 570 511 600 495 q 497 528 540 528 q 441 519 467 528 l 441 538 q 513 547 474 547 q 621 525 576 547 q 666 471 666 503 q 621 416 666 439 q 513 394 576 394 q 406 416 450 394 l 406 339 m 751 339 l 698 339 l 698 543 l 751 543 l 751 446 q 842 416 784 416 q 916 432 885 416 q 946 472 946 449 q 916 511 946 495 q 842 528 885 528 q 787 519 812 528 l 787 538 q 858 547 820 547 q 966 525 922 547 q 1011 471 1011 503 q 966 416 1011 439 q 858 394 922 394 q 751 416 796 394 l 751 339 z "},"P":{"ha":1356,"x_min":14,"x_max":1346,"o":"m 1305 273 q 1334 286 1322 273 q 1346 315 1346 298 l 1346 648 q 1334 677 1346 665 q 1305 690 1322 690 l 55 690 q 26 677 38 690 q 14 648 14 665 l 14 315 q 26 286 14 298 q 55 273 38 273 l 1305 273 m 126 363 q 115 374 115 363 q 119 603 115 600 q 126 606 122 606 q 136 603 132 606 l 337 493 q 344 484 344 489 q 337 476 344 480 l 136 366 q 135 365 136 366 q 132 363 134 364 q 126 363 130 363 m 245 484 l 124 606 q 136 603 132 606 l 284 522 l 245 484 m 283 448 l 337 478 q 344 487 344 482 q 337 495 344 491 l 284 524 l 245 486 l 283 448 m 125 365 q 125 365 127 365 q 136 368 132 365 l 283 448 l 245 486 l 125 365 m 780 326 q 743 352 754 329 l 759 360 q 764 352 761 357 q 772 346 767 348 q 781 343 777 343 q 804 375 804 343 q 782 365 795 365 q 751 378 764 365 q 739 409 739 392 q 751 440 739 425 q 779 452 764 452 q 802 444 793 452 l 802 450 l 820 450 l 820 372 q 780 326 820 326 m 1208 332 l 1190 332 l 1208 374 l 1177 446 l 1194 446 l 1216 395 l 1238 446 l 1255 446 l 1208 332 m 1126 363 q 1099 392 1099 368 q 1105 408 1099 401 q 1134 419 1116 419 q 1152 415 1145 419 q 1134 433 1152 433 q 1116 421 1123 433 l 1101 427 q 1133 448 1107 448 q 1168 410 1168 448 l 1168 367 l 1150 367 l 1150 374 q 1126 363 1142 363 m 595 366 q 562 380 574 366 q 551 410 551 394 q 562 439 551 425 q 595 453 574 453 q 627 439 615 453 q 638 410 638 425 q 627 380 638 394 q 595 366 616 366 m 688 366 q 656 380 668 366 q 644 410 644 394 q 656 439 644 425 q 688 453 667 453 q 720 439 709 453 q 732 410 732 425 q 721 380 732 394 q 688 366 709 366 m 484 366 q 433 387 454 367 q 414 434 414 406 q 435 483 414 461 q 482 502 456 502 q 528 484 507 502 l 515 470 q 482 484 501 484 q 449 469 463 483 q 435 434 435 452 q 449 400 435 416 q 486 385 464 385 q 518 398 503 385 q 527 421 526 408 l 484 421 l 484 440 l 545 440 q 546 425 546 433 q 529 383 546 402 q 484 366 509 366 m 903 368 q 873 380 885 368 q 862 410 862 393 q 874 441 862 427 q 902 454 886 454 q 941 422 929 454 l 884 398 q 905 385 889 385 q 927 397 918 385 l 942 387 q 937 380 939 383 q 903 368 923 368 m 1000 368 l 982 368 l 982 482 l 1019 482 q 1047 472 1036 482 q 1059 448 1059 462 q 1048 424 1059 434 q 1023 414 1038 414 l 1000 414 l 1000 368 m 1087 367 l 1069 367 l 1069 482 l 1087 482 l 1087 367 m 852 369 l 834 369 l 834 498 l 852 498 l 852 369 m 1130 380 q 1144 386 1137 380 q 1152 401 1152 392 q 1135 406 1144 406 q 1115 392 1115 403 q 1130 380 1115 380 m 595 384 q 612 392 606 384 q 618 410 618 400 q 612 427 618 419 q 595 435 606 435 q 576 427 583 435 q 570 410 570 419 q 576 392 570 400 q 595 384 583 384 m 688 384 q 706 392 700 384 q 712 410 712 400 q 706 427 712 419 q 688 435 700 435 q 670 427 677 435 q 664 410 664 419 q 670 392 664 400 q 688 384 677 384 m 784 385 q 805 402 798 384 q 806 406 805 404 q 783 437 806 437 q 767 429 774 437 q 760 410 760 420 q 767 392 760 399 q 784 385 774 385 m 881 411 l 920 428 q 903 437 914 437 q 886 428 892 437 q 880 413 880 420 l 881 411 m 1021 429 q 1035 434 1029 429 q 1040 447 1040 439 q 1020 465 1040 465 l 1000 465 l 1000 429 l 1021 429 m 1204 353 m 1204 353 m 1204 355 m 1204 353 m 1204 353 m 1204 355 m 1204 355 m 1204 353 m 1204 353 m 1204 353 m 1204 353 m 1204 355 m 1204 353 m 1204 355 m 1204 353 m 1204 353 m 1204 355 m 1204 353 m 1206 353 q 1206 353 1204 355 q 1206 353 1204 353 m 1205 354 q 1205 354 1205 353 m 1206 353 m 1206 353 m 1206 355 m 1206 353 m 1206 355 m 1206 353 m 1206 353 m 1206 355 m 450 554 q 428 563 437 554 q 418 585 418 571 q 427 607 418 599 q 449 614 436 614 q 473 602 466 614 l 465 597 q 449 604 460 604 q 429 583 429 602 q 449 563 431 563 q 463 568 457 563 l 463 577 l 446 577 l 446 587 l 474 587 l 474 565 q 450 554 465 554 m 526 554 l 486 555 l 486 614 l 526 614 l 526 604 l 496 604 l 496 589 l 525 589 l 525 581 l 496 581 l 496 564 l 526 564 l 526 554 m 566 555 l 555 555 l 555 604 l 537 604 l 537 614 l 583 614 l 583 604 l 566 604 l 566 555 m 629 555 l 618 555 l 618 614 l 629 614 l 629 555 m 667 555 l 657 555 l 657 604 l 640 604 l 640 614 l 685 614 l 685 604 l 667 604 l 667 555 m 749 554 q 727 563 735 554 q 718 585 718 572 q 749 614 722 614 q 779 585 779 611 q 749 554 775 554 m 747 564 q 767 585 767 564 q 747 606 766 606 q 733 599 739 606 q 728 585 728 593 q 747 564 729 564 m 841 555 l 831 555 l 801 597 l 801 555 l 790 555 l 790 614 l 801 614 l 831 573 l 831 614 l 841 614 l 841 555 m 283 448 l 245 486 l 284 524 l 337 495 q 344 487 344 491 q 337 478 344 482 l 283 448 m 125 365 l 245 486 l 283 448 l 136 368 q 125 365 132 365 q 125 365 127 365 m 245 484 l 284 522 l 136 603 q 124 606 132 606 l 245 484 z "},"Q":{"ha":1356,"x_min":14,"x_max":1350,"o":"m 1308 277 q 1337 290 1325 277 q 1350 319 1350 302 l 1350 653 q 1337 683 1350 670 q 1308 695 1325 695 l 56 695 q 26 683 38 695 q 14 653 14 670 l 14 319 q 26 290 14 302 q 56 277 38 277 l 1308 277 m 274 368 q 253 373 260 368 q 231 378 245 378 q 207 373 214 378 q 186 368 198 368 q 166 378 176 368 q 147 401 147 397 q 123 463 130 426 q 120 486 120 474 q 132 531 120 509 q 185 563 152 563 q 211 557 199 563 q 228 552 221 552 q 241 556 233 552 q 257 562 250 559 q 272 564 265 564 l 277 563 q 323 537 304 563 l 314 529 q 296 488 296 511 q 318 444 296 460 l 331 436 q 327 424 331 435 q 314 400 323 413 q 296 378 305 387 q 274 368 287 368 m 228 566 l 226 566 l 225 572 q 239 606 225 591 q 277 626 253 625 l 277 624 q 263 584 277 601 q 228 566 248 566 m 534 370 l 511 370 l 498 410 l 454 410 l 443 370 l 420 370 l 465 505 l 492 505 l 534 370 m 494 427 l 481 467 q 475 487 479 475 q 457 427 473 474 l 494 427 m 574 330 l 552 330 q 551 467 552 450 l 570 467 l 571 450 q 604 469 581 469 q 631 455 621 469 q 645 419 645 443 q 631 380 645 394 q 602 367 620 367 q 574 380 583 367 l 574 330 m 597 385 q 616 394 610 385 q 623 419 623 404 q 617 443 623 433 q 598 452 611 452 q 584 446 591 452 q 574 427 574 439 l 574 410 q 581 392 574 399 q 597 385 588 385 m 686 330 l 664 330 q 663 467 664 450 l 682 467 l 683 450 q 715 469 693 469 q 743 455 732 469 q 757 419 757 443 q 743 380 757 394 q 713 367 732 367 q 686 380 694 367 l 686 330 m 709 385 q 728 394 722 385 q 735 419 735 404 q 729 443 735 433 q 710 452 722 452 q 695 446 702 452 q 686 427 686 439 l 686 410 q 692 392 686 399 q 709 385 699 385 m 834 368 q 800 376 812 368 l 805 394 q 836 386 819 386 q 861 406 861 386 q 838 430 861 421 q 802 469 802 444 q 814 496 802 486 q 848 506 826 506 q 878 500 867 506 l 873 482 q 846 488 862 488 q 824 471 824 488 q 830 457 824 463 q 851 446 836 452 q 876 430 867 439 q 882 408 882 422 q 870 379 882 391 q 834 368 858 368 m 935 368 q 908 401 908 368 l 908 450 l 894 450 l 894 467 l 908 467 l 908 485 l 929 492 l 929 467 l 953 467 l 953 450 l 929 450 l 929 404 q 941 386 929 386 q 951 387 948 386 l 952 370 q 935 368 946 368 m 1013 368 q 978 382 991 368 q 966 418 966 396 q 979 455 966 440 q 1015 469 993 469 q 1048 455 1036 469 q 1061 419 1061 441 q 1047 383 1061 397 q 1013 368 1034 368 m 1012 384 q 1031 395 1024 384 q 1038 418 1038 406 q 1031 441 1038 433 q 1012 453 1024 453 q 992 442 999 453 q 985 418 985 431 q 991 395 985 404 q 1012 384 999 384 m 1100 372 l 1078 372 q 1078 469 1078 455 l 1096 469 l 1097 450 l 1098 450 q 1124 471 1106 471 l 1129 471 l 1131 448 l 1123 450 q 1100 422 1100 450 l 1100 372 m 1188 368 q 1153 382 1166 368 q 1140 417 1140 395 q 1152 454 1140 439 q 1186 469 1164 469 q 1217 454 1206 469 q 1227 423 1227 441 q 1225 414 1227 417 l 1161 414 q 1170 393 1161 400 q 1191 385 1179 385 q 1217 389 1205 385 l 1220 374 q 1188 368 1206 368 m 1206 429 q 1202 447 1206 438 q 1186 455 1197 455 q 1163 430 1167 455 l 1206 430 l 1206 429 m 449 552 q 433 553 439 552 l 433 618 q 452 618 441 618 q 488 587 488 618 q 449 552 488 552 m 451 562 q 476 587 476 562 q 470 605 476 598 q 452 612 463 612 q 444 610 448 612 l 444 562 l 451 562 m 522 552 q 505 559 511 552 q 499 577 499 566 q 506 595 499 588 q 523 602 512 602 q 540 595 534 602 q 546 577 546 588 q 539 559 546 566 q 522 552 533 552 m 523 560 q 533 565 530 560 q 536 577 536 570 q 523 593 536 593 q 511 577 511 593 q 523 560 511 560 m 612 553 l 602 553 q 592 589 593 585 q 581 553 591 585 l 572 553 l 557 601 l 567 601 l 575 562 l 586 601 l 594 601 l 604 564 q 614 601 608 583 l 627 601 l 612 553 m 681 553 l 670 553 l 670 580 q 661 593 670 593 q 650 581 650 593 l 650 553 l 640 553 l 640 601 l 650 601 l 650 593 q 664 603 655 603 q 681 583 681 603 l 681 553 m 710 553 l 699 553 l 699 623 l 710 623 l 710 553 m 749 552 q 732 559 738 552 q 726 577 726 566 q 732 595 726 588 q 749 602 739 602 q 766 595 760 602 q 772 577 772 588 q 766 559 772 566 q 749 552 760 552 m 749 560 q 759 565 755 560 q 762 577 762 570 q 749 593 762 593 q 737 577 737 593 q 749 560 737 560 m 800 552 q 789 556 793 552 q 785 565 785 560 q 813 584 785 583 q 804 593 813 593 q 791 591 797 593 l 789 598 q 807 602 795 602 q 825 582 825 602 q 824 558 825 566 l 823 553 l 814 553 l 813 558 q 800 552 808 552 m 803 560 q 813 568 810 560 l 813 577 q 795 568 795 577 q 803 560 796 561 m 859 552 q 840 576 840 552 q 846 595 840 587 q 860 601 852 601 q 873 595 869 601 l 873 622 l 884 622 l 884 553 l 875 553 l 875 560 q 859 552 870 552 m 862 558 q 873 577 873 558 l 873 584 q 866 592 871 591 q 862 593 865 593 q 850 575 850 593 q 862 558 850 558 m 951 552 q 934 559 940 552 q 928 577 928 566 q 935 595 928 588 q 952 602 941 602 q 969 595 963 602 q 975 577 975 588 q 968 559 975 566 q 951 552 962 552 m 951 560 q 961 565 958 560 q 964 577 964 570 q 951 593 964 593 q 939 577 939 593 q 951 560 939 560 m 1032 553 l 1022 553 l 1022 580 q 1013 593 1022 593 q 1002 581 1002 593 l 1002 553 l 991 553 l 991 601 l 1001 601 l 1001 593 q 1016 603 1006 603 q 1032 583 1032 603 l 1032 553 m 1095 552 q 1083 562 1085 552 q 1082 593 1082 565 l 1075 593 l 1075 601 l 1082 601 l 1082 609 l 1093 612 l 1093 601 l 1105 601 l 1103 593 l 1092 593 l 1092 570 q 1101 562 1092 562 l 1103 562 l 1103 553 q 1095 552 1100 552 m 1160 553 l 1149 553 l 1149 580 q 1140 593 1149 593 q 1129 584 1129 593 l 1129 553 l 1119 553 l 1119 623 l 1129 623 l 1129 593 q 1144 602 1135 602 q 1160 582 1160 602 l 1160 553 m 1200 552 q 1182 558 1188 552 q 1175 576 1175 565 q 1181 594 1175 587 q 1198 601 1187 601 q 1217 579 1217 601 l 1217 574 l 1186 574 q 1200 560 1186 560 q 1213 562 1208 560 l 1215 555 q 1200 552 1208 552 m 1208 582 q 1198 595 1208 595 q 1190 591 1193 595 q 1186 582 1186 587 l 1208 582 z "},"R":{"ha":1356,"x_min":14,"x_max":1345,"o":"m 679 1108 q 352 1022 511 1108 q 104 777 193 937 q 14 441 14 616 q 102 111 14 269 q 348 -135 189 -47 q 679 -223 507 -223 q 1012 -135 853 -223 q 1258 111 1171 -47 q 1345 441 1345 269 q 1255 777 1345 616 q 1006 1022 1165 937 q 679 1108 847 1108 m 532 317 q 559 321 545 317 q 603 372 603 333 q 536 440 603 440 q 473 390 473 437 q 481 354 473 376 q 532 317 496 317 m 677 162 q 782 183 730 162 q 833 231 833 203 q 826 232 830 232 q 784 217 814 232 q 673 186 726 186 q 542 237 602 186 q 525 224 525 232 q 534 209 525 217 q 578 181 553 191 q 677 162 628 162 m 817 315 q 840 319 828 315 q 879 368 879 331 q 878 389 879 378 q 814 440 867 440 q 755 376 755 435 q 775 333 755 350 q 817 315 795 315 m 669 83 q 444 147 547 83 q 323 335 323 223 l 325 357 q 285 396 286 396 q 271 441 271 418 q 299 504 271 473 q 361 535 328 535 q 410 521 386 535 q 424 509 424 511 l 473 535 q 663 582 566 581 l 698 755 q 718 806 709 801 q 793 791 726 806 q 870 776 865 776 q 892 793 878 778 q 920 808 907 808 l 935 811 q 995 755 983 811 l 995 736 q 929 680 995 680 q 868 742 878 680 l 739 769 q 698 583 736 755 q 932 507 857 568 q 971 529 958 526 q 1001 532 987 532 q 1078 468 1058 532 q 1084 431 1084 448 q 1033 359 1084 382 l 1033 348 q 819 104 1033 168 q 669 83 743 83 z "},"S":{"ha":1357,"x_min":14,"x_max":1339,"o":"m 83 368 q 14 438 14 368 l 65 438 l 65 428 q 84 399 65 399 q 96 405 90 399 q 102 418 102 410 q 101 428 102 420 q 79 448 100 437 q 16 517 16 475 q 71 568 16 564 l 97 567 q 146 522 145 563 l 146 507 q 108 506 121 507 q 98 510 99 506 l 99 511 q 81 536 99 536 q 64 522 64 536 q 73 504 64 511 q 108 483 82 496 q 151 428 151 460 q 83 368 151 368 m 699 368 q 629 423 633 368 l 629 438 l 682 438 l 681 427 q 700 399 681 399 q 713 405 707 399 q 718 418 718 411 q 715 430 718 425 q 702 443 712 435 q 672 461 692 450 q 631 515 631 483 q 687 568 631 566 l 714 567 q 763 511 763 563 q 737 506 760 506 q 717 507 720 506 q 714 515 714 507 q 712 527 714 522 q 706 534 711 531 q 696 536 702 536 q 680 520 680 536 q 716 487 680 509 q 755 458 745 471 q 766 425 766 446 q 699 368 766 368 m 1274 372 q 1208 403 1221 372 q 1204 469 1204 413 q 1205 520 1204 513 q 1278 568 1209 568 q 1339 504 1339 568 l 1291 504 q 1273 534 1288 534 q 1259 530 1263 534 q 1255 469 1255 526 q 1259 408 1255 411 q 1272 404 1263 404 q 1286 409 1282 404 q 1291 454 1289 414 l 1272 454 l 1272 482 l 1339 482 q 1338 421 1339 433 q 1274 372 1334 372 m 336 372 l 285 372 l 260 536 q 256 514 260 536 q 245 456 252 492 q 232 372 233 373 q 182 372 231 372 l 215 564 q 302 560 301 564 q 306 536 302 556 l 336 372 m 585 372 q 536 372 560 372 q 532 528 534 528 q 503 372 530 528 q 455 375 456 372 q 429 505 454 377 l 424 531 q 422 372 422 526 l 373 372 l 374 438 q 376 564 376 494 l 455 564 l 477 420 q 503 563 480 420 l 578 564 q 583 433 583 494 l 585 372 m 878 368 q 824 385 843 368 q 808 407 819 389 l 807 564 l 860 564 l 860 439 q 866 404 861 407 q 877 401 871 401 q 891 410 888 401 q 895 564 893 418 l 944 564 q 942 406 944 420 q 878 368 930 369 m 1156 372 l 1089 373 l 1041 525 l 1040 372 l 994 372 l 994 564 l 1066 562 q 1109 420 1107 426 l 1107 564 l 1156 564 l 1156 372 z "},"T":{"ha":1356,"x_min":14,"x_max":1345,"o":"m 400 262 q 412 265 404 262 q 434 272 420 269 q 475 285 448 275 q 564 313 502 294 q 587 323 587 319 q 618 360 614 330 q 591 405 618 394 q 539 427 591 408 q 430 470 443 465 q 411 478 417 475 q 402 481 406 480 l 400 479 l 395 479 q 351 358 351 479 q 393 262 351 262 l 400 262 m 644 14 q 654 18 651 14 q 685 41 674 20 q 687 63 685 54 q 689 244 689 72 q 641 289 689 289 q 610 274 621 289 q 596 257 598 260 q 590 250 593 255 q 582 243 587 244 q 515 162 530 179 q 494 138 499 146 q 483 123 488 130 q 477 109 477 117 q 559 36 477 70 q 644 14 614 14 m 648 452 q 658 455 654 452 q 689 510 689 465 l 667 841 q 618 869 659 869 q 488 837 572 869 q 418 782 418 811 q 648 452 597 452 m 783 383 q 890 408 802 383 q 932 418 916 414 q 962 427 949 421 q 979 432 975 432 q 1000 469 1000 432 q 938 581 994 513 q 882 623 906 622 q 855 613 859 623 q 844 597 851 604 q 793 527 838 591 q 730 427 730 444 q 766 383 730 391 l 783 383 m 879 79 q 936 116 904 79 q 1004 228 1004 193 q 992 256 1004 248 q 977 266 980 264 q 945 275 975 268 q 907 287 929 278 q 856 304 886 296 q 809 319 827 313 q 781 326 792 326 q 751 310 764 326 q 738 280 738 294 q 854 85 738 262 q 879 79 865 79 m 679 1108 q 1006 1022 847 1108 q 1255 777 1165 937 q 1345 441 1345 616 q 1258 111 1345 269 q 1012 -135 1171 -47 q 679 -223 853 -223 q 348 -135 507 -223 q 102 111 189 -47 q 14 441 14 269 q 104 777 14 616 q 352 1022 193 937 q 679 1108 511 1108 z "},"U":{"ha":1356,"x_min":11,"x_max":1345,"o":"m 537 98 q 861 450 861 121 q 680 779 861 677 q 537 811 614 811 q 393 779 458 811 q 212 450 212 677 q 537 98 212 121 m 537 198 q 361 340 416 198 q 347 450 347 394 q 537 708 347 694 q 727 450 727 708 q 712 340 727 394 q 537 198 658 198 m 79 674 q 148 743 148 674 q 79 811 148 811 q 11 743 11 811 q 79 674 11 674 m 144 96 l 144 602 l 15 602 l 15 96 l 144 96 m 1129 98 q 1345 307 1345 127 q 1163 515 1345 437 q 1034 622 1036 566 q 1149 711 1034 711 q 1284 677 1218 704 q 1295 690 1291 677 q 1301 724 1298 704 q 1312 758 1305 745 q 1318 779 1318 772 q 1156 812 1229 812 q 905 616 905 812 q 1088 414 905 475 q 1218 294 1215 364 q 1086 201 1218 201 q 920 245 1042 203 l 895 138 q 1129 98 995 98 z "},"V":{"ha":1356,"x_min":14,"x_max":1345,"o":"m 887 83 q 970 113 929 83 q 1030 210 1030 161 q 987 273 1030 242 q 906 328 949 302 q 846 353 876 353 q 827 352 844 353 q 785 311 810 351 q 743 288 769 288 q 711 296 728 288 q 540 465 593 345 q 529 503 529 484 q 531 522 529 509 q 559 552 532 536 q 587 576 576 562 q 598 614 598 589 q 571 671 595 633 q 447 790 494 790 q 423 786 435 790 q 326 666 326 750 q 338 608 326 639 q 854 93 490 245 q 887 83 869 83 m 1005 432 q 1022 442 1020 432 q 1024 453 1024 446 q 1023 461 1024 456 q 1022 473 1022 466 q 981 630 1022 558 q 868 748 939 701 q 711 798 797 794 q 703 799 709 798 q 690 800 697 800 q 672 779 672 800 q 678 766 672 770 q 692 763 684 763 q 705 760 700 762 q 904 673 838 741 q 989 471 970 605 l 987 457 q 989 441 987 450 q 1005 432 991 432 m 922 465 q 937 487 937 470 l 937 495 q 937 503 937 500 q 881 640 937 578 q 742 713 825 701 q 720 716 733 716 q 708 715 716 716 q 698 692 700 713 q 726 676 698 676 q 850 619 813 658 q 899 503 887 581 l 899 490 q 903 473 899 481 q 922 465 906 465 m 838 492 q 853 503 851 494 q 855 521 855 512 q 822 593 855 559 q 751 627 789 627 q 736 627 743 627 q 722 608 722 624 q 743 589 722 594 q 816 511 812 580 q 838 492 821 492 m 679 1108 q 1006 1022 847 1108 q 1255 777 1165 937 q 1345 441 1345 616 q 1258 111 1345 269 q 1012 -135 1171 -47 q 679 -223 853 -223 q 348 -135 507 -223 q 102 111 189 -47 q 14 441 14 269 q 104 777 14 616 q 352 1022 193 937 q 679 1108 511 1108 z "},"W":{"ha":1356,"x_min":90,"x_max":1269,"o":"m 578 798 l 578 798 q 575 802 575 798 q 597 813 575 813 q 585 805 589 812 q 578 798 582 798 m 665 802 l 664 802 q 656 807 661 802 q 647 811 652 811 q 642 810 644 811 q 656 814 651 814 q 667 809 664 814 l 668 806 q 665 802 668 804 m 372 429 q 382 435 376 429 q 393 454 390 443 l 394 459 q 396 465 396 464 q 391 471 396 471 q 385 460 388 471 q 372 439 382 449 q 370 432 370 435 q 372 429 370 429 m 548 -182 q 567 -152 567 -172 q 553 -111 567 -135 q 545 -98 550 -104 q 538 -90 540 -92 q 536 -85 536 -87 l 536 -85 q 552 -76 542 -76 q 562 -79 557 -76 q 650 -110 589 -110 q 690 -107 669 -110 q 827 -39 793 -96 q 850 -15 842 -15 q 862 -45 862 -15 q 844 -128 862 -73 q 838 -152 838 -142 q 840 -161 838 -155 q 858 -169 842 -168 q 869 -109 860 -155 q 880 -33 880 -53 q 874 18 880 -16 q 869 85 869 54 q 869 108 869 89 q 886 147 869 127 q 926 161 898 161 q 953 202 926 190 q 994 212 972 212 q 1055 193 1033 212 q 1013 225 1055 207 q 1019 247 1016 237 q 1022 267 1021 256 q 1024 282 1023 277 q 1025 294 1025 288 q 1025 304 1025 297 q 1024 316 1024 312 q 1021 333 1024 320 q 1018 349 1019 347 q 1015 369 1018 352 q 1010 389 1011 385 q 974 469 1002 426 q 918 527 945 511 q 962 463 937 511 q 1011 298 1011 371 q 1004 247 1011 271 q 960 214 995 214 q 935 230 941 214 q 929 294 930 246 q 920 376 929 341 q 869 496 901 466 l 863 501 q 816 625 842 594 q 785 690 785 661 q 790 723 785 704 q 795 750 795 739 q 792 765 795 756 q 760 781 789 774 q 725 794 747 783 q 697 807 702 806 q 688 836 688 808 q 696 869 688 851 q 728 887 704 887 q 762 864 753 887 q 768 836 768 848 q 766 819 768 827 q 761 806 761 811 q 774 795 761 795 q 789 799 780 795 q 798 827 798 802 q 770 917 798 894 q 731 935 754 931 q 661 857 661 929 q 663 831 661 845 q 662 819 663 819 q 627 828 652 828 q 613 827 618 828 l 610 827 q 601 831 603 827 l 601 839 q 588 902 601 877 q 553 927 575 927 q 522 905 533 927 q 509 855 509 880 q 512 829 509 845 q 522 803 515 814 q 532 791 528 791 q 546 802 540 791 l 547 806 q 542 808 547 808 l 541 808 q 528 820 535 808 q 522 848 522 832 q 553 885 522 885 q 575 869 568 885 q 583 839 583 852 q 582 821 583 825 q 558 800 565 810 q 536 781 551 789 q 521 771 522 772 q 508 746 508 758 q 514 736 508 739 q 546 707 535 723 q 595 691 556 691 q 667 703 629 691 q 685 708 669 704 q 712 716 701 713 q 734 727 722 720 q 751 740 747 733 q 761 747 755 747 q 768 745 764 747 q 772 737 772 743 q 756 723 772 727 q 677 691 728 714 q 602 671 631 671 q 562 675 585 671 l 557 675 q 555 674 555 675 q 568 659 555 671 q 617 642 587 642 q 648 647 631 642 q 702 671 675 656 q 754 696 743 696 q 764 688 762 696 q 756 677 764 682 q 742 669 748 671 l 727 662 q 675 628 705 651 q 602 589 624 589 q 585 593 593 589 q 536 650 568 602 q 518 669 523 669 q 516 659 516 669 q 481 573 516 631 q 465 528 470 554 q 464 513 464 520 q 474 479 464 495 q 426 409 456 474 q 389 300 395 344 q 388 270 388 291 l 388 233 q 383 201 388 207 q 374 191 380 191 q 361 198 368 191 q 333 281 333 226 q 336 315 333 298 l 338 324 q 336 328 338 328 l 335 328 q 320 275 320 309 q 340 196 320 239 q 359 174 344 186 q 378 159 375 162 q 458 89 393 141 q 530 29 524 37 q 544 -3 544 17 q 533 -34 544 -19 q 498 -52 522 -49 q 521 -86 505 -63 q 543 -127 537 -109 q 548 -182 548 -146 m 566 831 q 570 844 570 831 q 566 860 570 851 q 555 869 562 869 q 551 863 551 869 q 555 859 552 859 q 561 852 561 859 l 559 840 q 566 831 559 831 m 881 659 q 890 665 887 659 q 894 676 894 671 q 879 694 894 692 q 854 711 864 696 q 847 719 849 718 l 844 718 q 840 706 840 713 q 852 680 840 696 q 881 659 868 659 m 748 842 q 754 844 750 842 l 755 846 q 751 861 755 854 q 743 871 747 868 q 736 873 739 873 q 728 871 728 873 q 730 868 728 869 q 747 842 745 863 q 748 842 747 842 m 749 1004 q 752 1006 750 1004 q 760 1012 755 1008 q 772 1019 766 1017 q 779 1020 772 1020 q 790 1021 785 1020 q 798 1027 795 1023 q 795 1030 798 1028 q 788 1036 793 1033 q 781 1041 783 1039 q 762 1053 769 1053 q 752 1040 752 1052 l 753 1032 q 748 1020 753 1027 q 743 1010 743 1013 q 745 1006 743 1008 q 749 1004 747 1004 m 954 -258 q 861 -208 883 -258 q 807 -185 852 -186 q 707 -184 773 -184 q 556 -199 593 -184 q 515 -222 528 -210 q 442 -254 479 -254 q 354 -230 418 -254 q 240 -196 290 -206 l 162 -182 q 105 -163 121 -174 q 90 -132 90 -153 q 100 -89 90 -117 q 111 -50 111 -61 q 108 -22 111 -39 q 101 8 104 -5 q 97 34 97 22 q 97 44 97 36 q 105 59 98 52 q 149 70 116 68 q 196 79 182 71 q 228 106 219 93 q 237 146 237 119 q 242 116 242 130 q 213 64 242 81 q 162 51 193 51 l 138 52 q 111 31 111 52 q 125 -14 111 14 q 136 -52 136 -35 q 123 -96 136 -69 q 112 -130 112 -119 q 141 -153 112 -146 q 206 -168 156 -158 q 283 -184 256 -178 q 341 -201 302 -189 q 437 -222 410 -222 l 448 -222 q 498 -199 481 -217 q 515 -156 515 -182 q 509 -115 515 -138 q 495 -77 503 -92 q 479 -49 487 -62 q 349 138 386 98 q 285 178 313 178 q 261 170 272 178 q 257 168 258 168 q 248 204 248 168 q 274 288 248 244 q 291 320 286 306 q 335 436 331 427 q 388 526 359 497 q 484 677 473 636 q 472 917 475 764 l 472 929 q 491 1036 472 991 q 572 1115 511 1082 q 662 1131 603 1131 q 738 1120 699 1131 q 804 1089 777 1109 q 875 995 848 1057 q 899 895 899 941 l 897 861 q 1024 545 897 680 q 1101 419 1067 500 q 1152 220 1152 301 q 1151 195 1152 212 q 1142 163 1149 178 q 1127 145 1135 147 q 1108 131 1119 144 q 1087 103 1098 118 q 1057 78 1077 89 q 1012 66 1036 66 q 984 70 996 66 q 957 93 971 74 q 941 124 947 105 q 913 148 926 148 q 903 145 911 148 q 887 109 894 142 q 884 85 884 98 q 892 34 884 62 q 901 -33 901 6 q 893 -117 901 -70 q 891 -142 891 -130 q 907 -195 891 -174 q 959 -220 928 -220 q 980 -219 961 -220 q 1029 -193 999 -218 q 1099 -142 1076 -155 q 1179 -109 1123 -128 q 1254 -58 1254 -84 q 1252 -48 1254 -56 q 1234 -32 1249 -41 q 1194 -13 1219 -22 q 1156 23 1168 -5 q 1144 75 1144 50 q 1145 93 1144 77 q 1156 117 1145 108 q 1162 73 1157 93 q 1190 20 1173 37 q 1223 -5 1204 5 q 1259 -31 1249 -20 q 1269 -56 1269 -43 q 1266 -69 1269 -62 q 1236 -100 1263 -79 q 1189 -127 1220 -113 l 1164 -138 q 1018 -242 1087 -176 q 954 -258 1002 -258 z "},"X":{"ha":1356,"x_min":15,"x_max":1345,"o":"m 1332 8 l 1152 8 q 1141 12 1145 8 q 1137 22 1137 16 l 1137 845 q 1141 855 1137 851 q 1152 859 1145 859 l 1332 859 q 1341 855 1337 859 q 1345 845 1345 851 l 1345 22 q 1341 12 1345 16 q 1332 8 1337 8 m 960 8 l 780 8 q 770 12 774 8 q 766 22 766 16 l 766 544 q 737 633 766 585 q 626 682 708 682 l 237 682 q 227 677 231 682 q 223 668 223 673 l 223 22 q 219 12 223 16 q 209 8 215 8 l 28 8 q 19 12 23 8 q 15 22 15 16 l 15 845 q 19 855 15 851 q 28 859 23 859 l 715 859 q 812 845 766 859 q 907 785 858 831 q 963 690 951 738 q 975 606 975 642 l 975 22 q 970 12 975 16 q 960 8 966 8 m 589 8 l 400 8 q 390 12 394 8 q 386 22 386 16 l 386 517 q 390 527 386 523 q 400 531 394 531 l 589 531 q 600 527 595 531 q 604 517 604 523 l 604 22 q 600 12 604 16 q 589 8 595 8 z "},"Y":{"ha":1356,"x_min":10,"x_max":1343,"o":"m 153 307 q 105 313 138 307 q 56 329 76 319 l 54 329 q 49 314 49 329 l 17 314 l 17 396 l 45 396 q 54 373 45 381 q 153 337 86 337 q 189 341 176 337 l 207 347 q 224 369 224 353 q 202 389 224 385 q 201 390 201 389 q 140 397 182 393 q 71 408 101 401 q 26 430 41 415 l 25 430 l 22 435 q 10 469 10 449 q 52 523 10 506 q 132 540 94 540 q 228 518 191 538 q 232 517 231 517 q 236 529 236 517 l 265 529 l 265 458 l 239 458 q 136 509 229 506 q 77 497 100 509 q 66 480 66 490 q 78 465 66 470 q 138 456 96 461 q 229 441 205 450 q 280 380 280 422 q 273 351 280 361 q 219 317 254 325 q 153 307 187 307 m 961 318 l 958 485 q 960 497 958 494 q 972 500 962 500 l 999 500 l 999 526 l 876 526 l 876 500 l 903 500 q 915 497 912 500 q 919 397 918 493 l 775 526 l 673 526 l 673 500 l 696 500 q 711 495 709 500 q 714 484 714 490 l 714 361 q 704 344 714 344 l 675 344 l 675 318 l 796 318 l 796 344 l 766 344 q 756 348 758 344 q 753 466 754 351 l 919 318 l 961 318 m 1256 318 l 1256 344 l 1229 344 q 1217 349 1218 345 q 1216 375 1216 350 q 1217 400 1216 399 q 1223 408 1217 401 q 1267 458 1229 414 q 1305 499 1301 497 q 1343 500 1310 500 l 1343 526 l 1225 526 l 1225 500 l 1243 500 q 1248 496 1248 500 q 1247 493 1248 494 q 1239 484 1246 492 q 1222 463 1232 475 q 1205 443 1213 452 q 1197 434 1198 435 q 1196 434 1196 434 q 1188 444 1196 435 q 1171 464 1180 452 q 1154 485 1162 475 q 1145 497 1145 495 q 1167 500 1145 500 l 1167 526 l 1024 526 l 1024 500 l 1049 500 q 1064 496 1057 500 q 1137 414 1070 492 q 1150 400 1149 401 q 1151 398 1151 399 q 1152 397 1152 398 q 1152 376 1152 397 q 1152 349 1152 355 q 1144 345 1150 346 q 1113 344 1139 344 l 1113 318 l 1256 318 m 485 336 q 419 361 447 336 q 395 422 395 387 q 419 484 395 458 q 485 509 447 509 q 551 484 523 509 q 575 422 575 458 q 551 361 575 386 q 485 336 524 336 m 485 305 q 608 347 563 305 q 641 422 641 378 q 608 498 641 465 q 485 540 562 540 q 417 529 450 540 q 362 498 384 518 q 328 422 328 465 q 362 347 328 380 q 485 305 412 305 z "},"Z":{"ha":1356,"x_min":14,"x_max":1345,"o":"m 679 1108 q 1006 1022 847 1108 q 1255 777 1165 937 q 1345 441 1345 616 q 1258 111 1345 269 q 1012 -135 1171 -47 q 679 -223 853 -223 q 348 -135 507 -223 q 102 111 189 -47 q 14 441 14 269 q 104 777 14 616 q 352 1022 193 937 q 679 1108 511 1108 m 904 288 q 831 259 862 288 l 564 414 q 568 441 568 427 q 564 467 568 454 l 828 621 q 904 591 860 591 q 984 624 951 591 q 1017 703 1017 656 q 984 782 1017 749 q 904 815 951 815 q 825 782 858 815 q 792 703 792 749 q 795 677 792 689 l 532 523 q 456 553 500 553 q 376 520 409 553 q 343 441 343 487 q 376 361 343 394 q 456 328 409 328 q 532 359 500 328 l 798 203 q 795 179 795 191 q 827 102 795 134 q 904 70 859 70 q 981 102 949 70 q 1013 179 1013 134 q 981 256 1013 224 q 904 288 949 288 z "},"[":{"ha":1356,"x_min":10,"x_max":1342,"o":"m 675 1108 q 1003 1022 844 1108 q 1252 776 1162 937 q 1342 441 1342 616 q 1254 111 1342 269 q 1008 -136 1166 -47 q 675 -224 849 -224 q 345 -136 503 -224 q 98 111 186 -47 q 10 441 10 269 q 100 776 10 616 q 348 1022 189 937 q 675 1108 507 1108 m 1054 563 q 1048 564 1052 564 q 1048 564 1048 564 q 1030 562 1044 563 q 1011 560 1021 561 q 994 558 1001 559 q 987 556 990 557 q 983 551 985 554 q 970 529 981 548 q 944 485 958 509 q 918 440 929 460 q 906 421 906 421 q 915 467 906 421 q 935 572 923 513 q 955 679 946 632 q 964 731 963 726 q 963 741 965 739 q 956 743 962 744 q 940 743 951 743 q 918 741 928 742 q 903 739 907 739 q 895 735 898 738 q 892 726 892 733 q 883 678 890 722 q 863 569 875 633 q 838 437 850 504 q 816 318 825 367 q 806 264 807 269 q 806 253 804 255 q 816 254 808 252 q 829 255 819 254 q 851 259 840 257 q 869 262 862 260 q 870 262 870 262 q 874 263 872 262 q 877 269 876 264 q 882 293 878 272 q 891 340 886 314 q 900 386 896 366 q 903 406 903 406 q 910 388 903 406 q 925 346 916 370 q 940 303 933 322 q 948 281 947 284 q 950 276 949 277 q 956 275 952 275 q 977 278 965 277 q 998 282 989 280 q 1010 284 1008 284 q 1016 287 1015 285 q 1016 292 1017 288 q 1008 314 1015 295 q 992 358 1001 334 q 978 402 984 383 q 971 421 971 421 q 983 441 971 421 q 1011 487 996 461 q 1039 534 1027 513 q 1054 557 1052 554 q 1054 563 1057 562 l 1054 563 m 793 528 q 771 534 785 531 q 737 536 756 537 q 659 488 680 528 q 649 449 649 469 q 652 418 648 429 q 686 372 660 395 q 710 342 703 355 q 718 319 718 329 q 716 304 718 309 q 698 287 711 293 q 666 286 685 281 q 651 291 657 288 q 641 298 645 294 q 635 304 637 302 q 633 307 633 307 q 632 300 633 307 q 627 284 630 294 q 623 267 625 275 q 619 256 621 259 q 618 243 616 248 q 628 237 620 239 q 659 230 638 232 q 711 233 680 228 q 752 253 734 238 q 781 288 771 269 q 791 320 788 300 q 787 360 793 339 q 760 400 781 381 q 736 424 744 416 q 725 436 728 431 q 720 443 722 440 q 718 461 715 452 q 725 477 720 471 q 750 486 733 487 q 760 483 754 486 q 771 478 766 481 q 780 472 777 475 q 783 469 783 469 q 785 476 783 469 q 790 492 787 484 q 796 508 793 500 q 799 517 799 515 q 793 528 802 525 l 793 528 m 449 339 l 519 507 l 521 350 l 449 339 m 560 679 q 553 688 559 689 q 543 680 547 688 q 499 588 536 664 q 417 419 463 513 q 338 256 372 326 q 302 180 304 186 q 300 173 298 174 q 309 172 302 171 q 326 174 313 172 q 355 179 339 176 q 378 183 370 182 q 383 184 381 184 q 387 189 385 185 q 393 202 387 190 q 405 231 398 215 q 417 260 412 248 q 422 273 422 273 l 520 288 q 520 279 520 288 q 521 256 521 269 q 521 230 521 242 q 522 214 522 218 q 523 208 522 210 q 530 208 524 206 q 547 210 536 208 q 569 213 559 212 q 583 216 580 215 q 593 220 591 217 q 593 229 595 222 q 591 254 593 231 q 581 398 588 303 q 568 576 574 492 q 560 679 562 661 l 560 679 z "},"\\":{"ha":1356,"x_min":10,"x_max":1342,"o":"m 675 1108 q 1003 1022 844 1108 q 1252 776 1162 937 q 1342 441 1342 616 q 1254 111 1342 269 q 1008 -136 1166 -47 q 675 -224 849 -224 q 345 -136 503 -224 q 98 111 186 -47 q 10 441 10 269 q 100 776 10 616 q 348 1022 189 937 q 675 1108 507 1108 m 614 543 l 614 543 l 614 651 q 608 698 614 685 q 587 739 608 718 q 506 772 553 772 q 425 739 452 772 q 391 651 391 705 l 391 226 q 418 131 391 165 q 506 98 452 98 q 594 144 567 98 q 614 226 614 172 l 614 340 l 782 131 q 857 98 809 98 q 937 131 903 98 q 964 205 964 165 q 944 266 964 246 l 809 441 l 924 604 q 937 665 937 631 q 903 739 937 705 q 829 772 870 772 q 735 718 768 772 l 614 543 z "},"]":{"ha":1356,"x_min":10,"x_max":1342,"o":"m 675 1108 q 1003 1022 844 1108 q 1252 776 1162 937 q 1342 441 1342 616 q 1254 111 1342 269 q 1008 -136 1166 -47 q 675 -224 849 -224 q 345 -136 503 -224 q 98 111 186 -47 q 10 441 10 269 q 100 776 10 616 q 348 1022 189 937 q 675 1108 507 1108 m 675 821 q 465 734 552 821 q 378 524 378 647 q 440 306 378 413 q 574 129 502 199 q 675 59 646 59 q 777 129 705 59 q 911 306 849 199 q 974 524 974 413 q 886 734 974 647 q 675 821 799 821 m 675 342 q 548 395 601 342 q 495 524 495 448 q 529 628 495 583 q 552 580 532 600 q 602 560 573 560 q 653 581 632 560 q 675 633 675 602 q 633 699 675 676 q 675 703 654 703 q 803 650 750 703 q 857 524 857 597 q 803 395 857 448 q 675 342 750 342 z "},"^":{"ha":1356,"x_min":10,"x_max":1342,"o":"m 520 660 q 648 811 560 811 q 661 806 654 811 q 581 679 608 788 l 520 660 m 554 184 q 491 196 516 184 q 453 219 466 207 l 440 231 l 460 297 l 484 281 q 533 264 512 264 q 564 293 564 264 q 530 344 564 317 q 479 433 479 381 q 518 530 479 486 q 635 574 557 574 q 680 568 665 574 l 694 562 l 665 475 l 657 479 q 636 486 650 482 q 608 489 623 489 q 559 453 559 489 q 595 410 559 436 q 663 305 663 366 q 554 184 663 195 m 611 688 q 677 783 637 770 q 688 716 688 760 l 688 712 l 611 688 m 775 68 l 1013 120 l 971 402 q 929 685 930 677 q 924 694 928 693 q 890 696 920 694 l 860 699 l 823 734 q 806 747 812 747 l 775 739 q 694 814 750 814 l 691 814 q 650 838 671 838 q 538 770 576 838 q 489 650 500 703 q 404 623 410 626 q 395 602 397 619 q 365 370 393 585 l 336 151 l 775 68 m 714 720 l 714 728 q 705 788 714 764 q 751 731 734 783 l 714 720 m 675 1108 q 1003 1022 844 1108 q 1252 776 1162 937 q 1342 441 1342 616 q 1254 111 1342 269 q 1008 -136 1166 -47 q 675 -224 849 -224 q 345 -136 503 -224 q 98 111 186 -47 q 10 441 10 269 q 100 776 10 616 q 348 1022 189 937 q 675 1108 507 1108 z "},"_":{"ha":1356,"x_min":10,"x_max":1342,"o":"m 661 541 l 587 541 l 620 686 l 698 686 q 732 676 718 686 q 753 633 753 660 q 723 568 753 595 q 661 541 696 541 m 661 593 q 685 603 672 593 q 700 628 700 616 l 701 632 q 662 634 701 634 l 652 593 l 661 593 m 657 92 l 392 92 l 419 211 l 302 211 l 444 846 l 755 846 q 917 773 852 846 q 951 701 939 749 q 1047 540 1047 649 q 1041 484 1047 514 q 768 269 973 269 l 696 269 l 657 92 m 525 263 l 564 439 l 679 439 q 843 507 777 439 q 899 614 884 549 q 904 654 904 635 q 888 723 904 695 q 829 777 866 760 q 755 794 793 794 l 487 794 l 368 263 l 525 263 m 615 144 l 654 321 l 768 321 q 909 366 848 321 q 990 495 970 412 q 994 539 994 519 q 956 634 994 601 q 950 602 954 618 q 677 387 882 387 l 605 387 l 567 211 l 473 211 l 458 144 l 615 144 m 675 1108 q 348 1022 507 1108 q 100 776 189 937 q 10 441 10 616 q 98 111 10 269 q 345 -136 186 -47 q 675 -224 503 -224 q 1008 -136 849 -224 q 1254 111 1166 -47 q 1342 441 1342 269 q 1252 776 1342 616 q 1003 1022 1162 937 q 675 1108 844 1108 z "},"`":{"ha":1356,"x_min":10,"x_max":1342,"o":"m 675 1108 q 1003 1022 844 1108 q 1252 776 1162 937 q 1342 441 1342 616 q 1254 111 1342 269 q 1008 -136 1166 -47 q 675 -224 849 -224 q 345 -136 503 -224 q 98 111 186 -47 q 10 441 10 269 q 100 776 10 616 q 348 1022 189 937 q 675 1108 507 1108 m 834 104 q 955 136 897 104 q 1013 239 1013 168 l 1013 538 q 935 583 1013 583 q 879 530 879 583 l 879 213 q 831 174 879 174 q 787 216 787 174 l 787 423 q 620 589 754 589 q 537 570 586 589 q 475 505 488 551 l 475 704 q 393 787 455 787 q 343 773 383 787 q 340 157 340 465 q 406 110 340 110 q 475 160 475 110 l 475 389 q 575 472 486 472 q 656 395 656 472 l 656 311 q 660 225 660 282 q 716 136 660 168 q 834 104 772 104 m 946 646 q 1016 716 1004 648 q 986 776 1008 766 q 943 785 964 785 q 883 763 898 785 q 869 723 869 741 l 869 720 q 902 656 879 666 q 946 646 924 646 z "},"a":{"ha":1356,"x_min":81,"x_max":1276,"o":"m 170 153 q 230 178 205 153 q 255 241 255 202 l 255 605 q 230 667 255 642 q 170 692 205 692 q 107 667 133 692 q 81 605 81 642 l 81 241 q 107 178 81 202 q 170 153 133 153 m 1191 153 q 1251 178 1227 153 q 1276 241 1276 202 l 1276 605 q 1251 667 1276 642 q 1191 692 1227 692 q 1128 667 1154 692 q 1103 605 1103 642 l 1103 241 q 1128 178 1103 202 q 1191 153 1154 153 m 1072 706 q 1017 892 1072 808 q 873 1019 962 975 l 930 1122 l 931 1128 q 918 1140 931 1140 q 849 1031 911 1140 q 678 1067 764 1067 q 512 1031 589 1067 q 441 1140 446 1140 q 427 1130 427 1140 q 490 1023 427 1126 q 342 893 397 977 q 286 706 286 810 l 1072 706 m 500 848 q 477 858 486 848 q 467 883 467 868 q 477 904 467 895 q 500 914 486 914 q 523 904 513 914 q 532 883 532 895 q 523 858 532 868 q 500 848 513 848 m 857 848 q 827 883 827 848 q 836 904 827 895 q 857 914 845 914 q 882 904 871 914 q 892 883 892 895 q 857 848 892 848 m 827 -264 q 889 -238 863 -264 q 915 -174 915 -212 l 915 16 l 976 16 q 1043 44 1016 16 q 1069 109 1069 71 l 1069 675 l 290 675 l 290 109 q 317 44 290 71 q 382 16 344 16 l 446 16 l 446 -174 q 472 -238 446 -212 q 532 -264 497 -264 q 594 -238 568 -264 q 621 -174 621 -212 l 621 16 l 738 16 l 738 -174 q 763 -238 738 -212 q 827 -264 788 -264 z "},"b":{"ha":1356,"x_min":14,"x_max":1345,"o":"m 678 538 l 549 538 q 515 551 528 538 q 502 583 502 564 q 515 615 502 602 q 549 629 528 629 l 678 629 q 711 615 698 629 q 724 583 724 602 q 711 551 724 564 q 678 538 698 538 m 814 267 l 549 267 q 515 281 528 267 q 502 313 502 295 q 515 345 502 333 q 549 357 528 357 l 814 357 q 845 345 833 357 q 858 313 858 333 q 845 281 858 295 q 814 267 833 267 m 1050 511 l 1045 524 l 1034 532 q 1015 535 1029 534 q 985 537 1001 536 q 955 540 970 538 q 933 548 941 542 q 920 573 922 557 q 913 611 917 590 q 903 666 908 654 q 892 692 899 677 q 858 741 880 718 q 811 781 836 764 q 759 807 786 798 q 709 821 732 817 l 545 821 q 452 803 495 821 q 376 752 408 785 q 326 677 345 720 q 308 585 308 633 l 308 309 q 326 217 308 260 q 376 141 345 174 q 452 91 408 109 q 545 73 495 73 l 817 73 q 907 91 865 73 q 982 141 949 109 q 1033 217 1014 174 q 1053 309 1053 260 l 1053 500 l 1050 511 m 679 1108 q 1006 1022 847 1108 q 1255 777 1165 937 q 1345 441 1345 616 q 1258 111 1345 269 q 1012 -135 1171 -47 q 679 -223 853 -223 q 348 -135 507 -223 q 102 111 189 -47 q 14 441 14 269 q 104 777 14 616 q 352 1022 193 937 q 679 1108 511 1108 z "},"c":{"ha":1356,"x_min":330,"x_max":1028,"o":"m 928 -264 q 997 -236 968 -264 q 1025 -168 1025 -208 l 1025 780 l 1028 780 l 1028 869 l 1025 869 l 1025 1044 q 997 1112 1025 1084 q 928 1140 968 1140 l 429 1140 q 361 1112 389 1140 q 333 1044 333 1084 l 333 972 l 330 972 l 330 924 l 333 924 l 333 868 l 330 868 l 330 780 l 333 780 l 333 757 l 330 757 l 330 669 l 333 669 l 333 -168 q 361 -236 333 -208 q 429 -264 389 -264 l 928 -264 m 993 -119 l 366 -119 l 366 996 l 993 996 l 993 -119 m 670 -241 q 636 -227 650 -241 q 622 -193 622 -213 q 636 -158 622 -172 q 670 -144 650 -144 q 704 -159 690 -144 q 718 -193 718 -173 q 704 -227 718 -213 q 670 -241 690 -241 m 679 1086 q 671 1093 671 1086 q 679 1101 671 1101 q 686 1093 686 1101 q 679 1086 686 1086 m 559 1042 q 549 1053 549 1042 q 552 1061 549 1057 q 559 1064 555 1064 q 568 1061 564 1064 q 571 1053 571 1057 q 568 1045 571 1048 q 559 1042 564 1042 m 669 -236 q 700 -223 688 -236 q 713 -193 713 -211 q 700 -162 713 -175 q 669 -150 688 -150 q 639 -162 652 -150 q 627 -193 627 -175 q 639 -223 627 -211 q 669 -236 652 -236 m 731 1044 l 623 1044 q 612 1053 612 1044 q 623 1061 612 1061 l 731 1061 q 741 1053 741 1061 q 731 1044 741 1044 z "},"d":{"ha":1356,"x_min":14,"x_max":1345,"o":"m 1050 356 l 1044 356 q 989 351 1031 356 l 989 514 l 1045 514 q 1050 363 1050 395 l 1050 356 m 901 587 l 901 277 q 1037 273 1007 273 l 1045 273 l 1045 239 l 901 239 l 901 169 l 1135 169 l 1135 587 l 901 587 m 717 351 l 717 514 l 772 514 l 772 351 l 717 351 m 626 587 l 626 277 q 764 273 736 273 l 776 273 l 772 239 l 626 239 l 626 169 l 862 169 l 862 587 l 626 587 m 496 587 l 496 277 l 587 277 l 587 587 l 496 587 m 496 713 l 496 627 q 581 621 564 621 q 589 623 589 621 l 587 623 l 587 713 l 496 713 m 312 351 l 310 347 l 310 360 q 315 514 310 393 l 371 514 l 371 351 l 312 351 m 374 713 l 371 587 l 224 587 l 224 277 l 459 277 l 459 713 l 374 713 m 679 1108 q 1006 1022 847 1108 q 1255 777 1165 937 q 1345 441 1345 616 q 1258 111 1345 269 q 1012 -135 1171 -47 q 679 -223 853 -223 q 348 -135 507 -223 q 102 111 189 -47 q 14 441 14 269 q 104 777 14 616 q 352 1022 193 937 q 679 1108 511 1108 z "},"e":{"ha":1360,"x_min":14,"x_max":1347,"o":"m 208 905 q 14 441 15 713 q 208 -22 15 170 q 680 -216 405 -216 q 1152 -22 957 -216 q 1347 441 1347 170 q 1152 905 1347 713 q 680 1099 957 1099 q 208 905 405 1099 m 270 709 l 523 709 q 671 604 645 709 q 673 575 673 586 q 613 471 673 505 q 689 351 689 440 l 689 349 q 583 205 689 246 q 461 194 543 194 l 270 194 q 266 199 266 194 l 266 706 q 270 709 267 709 m 789 681 l 1008 681 q 1013 677 1013 681 l 1013 631 q 1008 627 1013 627 l 789 627 q 785 631 785 627 l 785 677 q 789 681 787 681 m 371 619 l 371 507 l 471 507 q 564 537 553 507 q 569 564 569 555 l 569 565 q 493 619 569 619 l 371 619 m 905 587 q 1092 429 1061 587 q 1095 392 1095 410 l 1095 360 q 1091 357 1095 357 l 817 357 q 888 267 817 286 q 911 264 902 264 q 989 308 964 264 l 1085 308 q 1088 302 1088 308 q 1022 212 1088 265 q 905 182 977 182 q 745 262 806 182 q 718 366 718 309 l 718 397 q 826 572 718 521 q 905 587 864 587 m 821 425 l 990 425 q 934 499 990 477 q 905 503 918 503 q 826 445 845 503 q 821 425 821 431 m 371 421 l 371 286 l 505 286 q 578 354 578 286 l 578 360 q 496 421 578 421 l 371 421 z "},"f":{"ha":1356,"x_min":14,"x_max":1345,"o":"m 745 16 l 745 405 l 877 405 l 896 556 l 745 556 l 745 642 q 749 686 745 677 q 755 701 749 689 q 831 727 771 727 l 901 727 l 901 863 q 785 869 846 869 q 617 783 667 869 q 589 671 589 734 l 589 556 l 458 556 l 458 405 l 589 405 l 589 16 l 745 16 m 679 1108 q 1006 1022 847 1108 q 1255 777 1165 937 q 1345 441 1345 616 q 1258 111 1345 269 q 1012 -135 1171 -47 q 679 -223 853 -223 q 348 -135 507 -223 q 102 111 189 -47 q 14 441 14 269 q 104 777 14 616 q 352 1022 193 937 q 679 1108 511 1108 z "},"g":{"ha":1356,"x_min":14,"x_max":1345,"o":"m 520 168 q 688 221 609 168 q 789 452 789 300 q 787 487 789 469 l 787 488 q 519 487 519 488 l 519 393 q 679 392 528 393 q 669 363 679 385 q 628 307 664 342 q 519 272 578 272 q 387 332 444 272 q 347 448 347 380 q 370 538 347 498 q 414 589 387 570 q 516 624 457 624 q 635 586 576 624 q 644 593 636 586 q 705 659 690 638 l 705 659 q 530 728 616 728 l 519 728 q 355 675 428 728 q 251 531 278 619 q 239 443 239 497 q 255 352 239 398 q 370 209 290 262 q 520 168 439 168 m 1039 328 l 1040 408 l 1120 409 l 1120 488 l 1040 488 l 1039 569 l 960 569 l 960 488 l 880 488 l 880 409 l 960 408 l 960 328 l 1039 328 m 679 1108 q 1006 1022 847 1108 q 1255 777 1165 937 q 1345 441 1345 616 q 1258 111 1345 269 q 1012 -135 1171 -47 q 679 -223 853 -223 q 348 -135 507 -223 q 102 111 189 -47 q 14 441 14 269 q 104 777 14 616 q 352 1022 193 937 q 679 1108 511 1108 z "},"h":{"ha":1356,"x_min":17,"x_max":1339,"o":"m 210 860 q 677 1050 404 1050 q 1146 860 951 1050 q 1339 398 1339 669 q 1146 -62 1339 129 q 677 -254 951 -254 q 210 -62 404 -254 q 17 398 17 129 q 210 860 17 669 m 654 522 q 310 474 506 477 q 514 734 349 651 q 654 522 555 683 m 715 398 q 397 148 515 334 q 302 401 302 250 l 302 408 q 677 460 501 408 l 679 460 q 715 398 679 452 m 821 54 q 653 7 732 7 q 446 104 540 7 q 739 335 541 265 q 821 54 788 224 m 728 542 q 589 761 682 623 q 688 774 641 774 q 922 678 820 774 q 728 542 861 594 m 884 87 q 813 353 865 193 q 901 360 858 360 q 1044 336 975 360 q 884 87 1015 174 m 1049 401 q 877 418 958 418 q 789 412 831 418 q 772 450 785 425 q 756 487 761 474 q 964 633 885 538 q 1049 401 1046 537 m 1113 422 q 985 707 1099 594 q 701 835 867 822 l 649 835 q 366 707 481 821 q 237 423 250 590 l 237 370 q 649 -41 284 5 l 701 -41 q 985 87 870 -26 q 1113 370 1099 201 l 1113 422 z "},"i":{"ha":1355,"x_min":75,"x_max":1277,"o":"m 463 -242 q 524 -232 499 -241 q 576 -213 549 -222 q 634 -194 604 -203 q 707 -186 664 -186 q 833 -213 768 -186 q 949 -241 897 -241 q 1078 -187 1014 -241 q 1178 -73 1123 -149 q 1254 62 1227 -5 q 1277 126 1277 117 q 1179 186 1220 149 q 1080 403 1080 273 q 1195 636 1080 536 q 1240 666 1230 666 q 1167 736 1208 709 q 1089 778 1127 763 q 1018 798 1050 793 q 971 803 986 802 q 943 804 956 804 q 806 776 883 804 q 686 741 713 741 q 608 760 664 741 q 444 798 502 798 q 267 752 348 797 q 138 626 186 707 q 75 391 75 526 q 122 142 75 273 q 231 -68 161 29 q 335 -189 288 -149 q 452 -242 396 -242 l 463 -242 m 685 817 q 799 844 742 817 q 894 917 856 871 q 970 1106 970 1004 l 969 1136 q 754 1033 848 1128 q 673 850 673 945 q 675 817 673 833 l 685 817 z "},"j":{"ha":1356,"x_min":7,"x_max":1348,"o":"m 1072 -204 q 1061 -203 1067 -204 l 682 21 l 297 -200 q 283 -204 290 -204 q 267 -199 274 -204 q 255 -177 255 -190 q 334 268 255 -174 l 18 558 q 7 578 7 567 q 9 587 7 583 q 33 606 15 604 l 460 655 l 654 1058 q 680 1075 663 1075 q 705 1058 696 1075 l 892 646 l 1323 606 q 1348 578 1348 603 q 1341 558 1348 567 l 1028 268 l 1036 207 q 958 203 1004 203 q 767 212 882 203 l 586 226 l 1018 528 q 747 560 894 560 q 649 559 735 560 q 441 544 562 558 q 303 526 311 528 l 305 526 q 412 522 320 526 q 617 509 505 517 q 808 488 730 501 l 379 174 l 389 173 q 650 158 450 165 q 733 156 692 156 q 1038 180 890 156 q 1128 207 1086 190 q 1087 174 1111 188 l 1046 153 q 1103 -178 1103 -174 q 1092 -199 1103 -191 q 1072 -204 1082 -204 z "},"k":{"ha":1356,"x_min":14,"x_max":1345,"o":"m 591 500 l 747 701 q 807 703 750 703 q 869 696 869 703 q 774 573 869 692 q 679 451 679 454 q 787 317 679 449 q 895 183 895 185 q 888 175 895 175 q 776 178 777 175 l 591 397 l 567 400 q 565 178 567 179 q 516 175 564 175 q 466 177 467 175 q 465 443 465 179 q 466 709 465 708 q 516 710 467 710 q 565 709 564 710 q 567 500 567 708 l 591 500 m 679 1108 q 353 1023 511 1108 q 201 908 267 976 q 104 777 145 850 q 15 467 21 628 q 14 441 14 454 q 102 111 14 269 q 348 -135 189 -47 q 679 -223 507 -223 q 1012 -135 853 -223 q 1258 111 1171 -47 q 1345 441 1345 269 q 1255 777 1345 616 q 1006 1022 1165 937 q 679 1108 847 1108 m 395 -22 q 337 1 360 -22 q 313 58 313 25 q 337 116 313 92 q 395 140 360 140 q 451 116 428 140 q 475 58 475 92 q 451 1 475 25 q 395 -22 428 -22 m 962 -24 q 906 0 929 -24 q 882 56 882 23 q 906 114 882 91 q 962 138 929 138 q 1020 114 996 138 q 1043 56 1043 91 q 1020 0 1043 23 q 962 -24 996 -24 m 216 522 q 159 546 182 522 q 135 602 135 569 q 159 660 136 636 q 216 683 182 683 q 272 659 249 683 q 296 602 296 635 q 272 546 296 569 q 216 522 249 522 m 682 854 q 624 878 647 854 q 600 935 600 901 q 624 993 602 970 q 682 1016 647 1016 q 738 992 715 1016 q 762 935 762 969 q 738 878 762 901 q 682 854 715 854 m 1138 522 q 1081 546 1105 522 q 1058 602 1058 569 q 1081 659 1058 635 q 1138 683 1105 683 q 1195 659 1171 683 q 1219 602 1219 635 q 1195 546 1219 569 q 1138 522 1171 522 z "},"l":{"ha":1356,"x_min":14,"x_max":1345,"o":"m 821 621 l 891 621 l 891 692 l 821 692 l 821 621 m 680 621 q 625 612 652 621 q 575 587 597 602 l 399 587 l 399 621 q 429 696 399 667 q 504 726 458 726 l 854 726 q 931 696 900 726 q 962 621 962 667 l 962 587 l 784 587 q 735 612 761 602 q 680 621 709 621 m 680 550 q 755 520 724 550 q 786 445 786 490 q 755 370 786 400 q 680 340 724 340 q 604 370 635 340 q 573 445 573 400 q 604 520 573 490 q 680 550 635 550 m 854 163 l 504 163 q 429 194 458 163 q 399 269 399 225 l 399 550 l 538 550 q 513 501 523 528 q 504 445 504 475 q 518 377 504 408 q 555 321 532 345 q 611 282 578 296 q 680 269 644 269 q 749 282 717 269 q 804 321 781 296 q 841 377 827 345 q 854 445 854 408 q 845 501 854 475 q 821 550 836 528 l 962 550 l 962 269 q 931 194 962 225 q 854 163 900 163 m 1031 658 q 990 757 1031 716 q 891 798 950 798 l 467 798 q 368 757 409 798 q 328 658 328 716 l 328 234 q 368 135 328 175 q 467 94 409 94 l 891 94 q 990 135 950 94 q 1031 234 1031 175 l 1031 658 m 679 1108 q 1006 1022 847 1108 q 1255 777 1165 937 q 1345 441 1345 616 q 1258 111 1345 269 q 1012 -135 1171 -47 q 679 -223 853 -223 q 348 -135 507 -223 q 102 111 189 -47 q 14 441 14 269 q 104 777 14 616 q 352 1022 193 937 q 679 1108 511 1108 z "},"m":{"ha":1356,"x_min":11,"x_max":1345,"o":"m 604 655 l 214 243 l 569 437 l 753 243 l 1142 655 l 791 465 l 604 655 m 677 1116 q 1005 1030 846 1116 q 1255 784 1164 944 q 1345 448 1345 623 q 1258 116 1345 275 q 1011 -130 1170 -42 q 677 -218 852 -218 q 346 -130 505 -218 q 99 116 186 -42 q 11 448 11 275 q 101 784 11 623 q 350 1030 191 944 q 677 1116 509 1116 z "},"n":{"ha":1356,"x_min":14,"x_max":1345,"o":"m 720 502 q 723 505 720 505 l 723 502 l 720 502 m 475 572 l 317 572 l 317 96 l 475 96 l 475 572 m 396 639 q 462 662 437 639 q 487 720 487 686 q 460 779 484 756 q 399 802 437 802 q 332 779 357 802 q 307 720 307 756 q 331 662 307 686 q 396 639 355 639 m 1047 368 q 996 532 1047 479 q 866 584 945 584 q 769 557 800 584 q 723 505 739 530 l 723 572 l 564 572 l 564 316 l 564 96 l 723 96 l 723 361 q 723 383 723 373 q 727 400 723 393 q 755 441 736 422 q 809 459 775 459 q 870 429 852 459 q 888 350 888 398 l 888 96 l 1047 96 l 1047 368 m 679 1108 q 1006 1022 847 1108 q 1255 777 1165 937 q 1345 441 1345 616 q 1258 111 1345 269 q 1012 -135 1171 -47 q 679 -223 853 -223 q 348 -135 507 -223 q 102 111 189 -47 q 14 441 14 269 q 104 777 14 616 q 352 1022 193 937 q 679 1108 511 1108 z "},"o":{"ha":1356,"x_min":157,"x_max":1190,"o":"m 653 -264 q 214 4 311 -256 q 157 408 157 143 q 173 737 157 607 q 665 1137 230 1120 q 1097 927 1004 1128 q 1190 413 1190 726 q 971 -191 1190 -60 q 653 -264 849 -264 m 627 -172 l 990 191 l 744 437 l 989 682 l 627 1040 l 627 555 l 422 760 l 349 685 l 600 435 l 347 182 l 421 109 l 627 315 l 627 -172 m 722 555 l 722 807 l 847 680 l 722 555 m 722 70 l 722 323 l 847 195 l 722 70 z "},"p":{"ha":1356,"x_min":14,"x_max":1345,"o":"m 698 841 q 493 779 580 841 q 452 747 477 770 q 420 707 429 722 q 372 555 372 633 q 408 427 372 478 q 437 395 417 412 q 472 380 463 380 l 475 380 q 482 381 477 380 q 488 395 488 386 q 499 438 499 433 q 494 448 499 443 q 460 543 460 486 q 507 681 460 621 q 540 714 520 698 q 683 762 602 762 q 819 720 766 762 q 876 587 876 669 q 846 438 876 505 q 828 404 837 418 q 731 345 786 345 q 683 360 705 345 q 656 412 656 381 l 656 416 q 672 479 656 431 q 699 595 699 564 q 692 632 699 615 q 637 663 674 663 q 580 633 604 663 q 549 547 549 596 q 564 473 549 505 l 509 240 q 498 145 498 195 l 498 136 q 503 54 498 97 q 508 45 503 46 l 509 45 q 513 45 511 45 q 527 64 514 48 q 570 130 554 101 q 595 187 582 156 q 629 321 606 228 q 642 306 633 315 q 662 290 654 294 q 740 264 701 264 q 743 265 743 265 l 744 265 q 822 281 784 265 q 933 374 889 307 q 988 578 988 462 q 972 667 988 622 q 861 796 938 749 q 698 841 789 841 m 679 1108 q 1006 1022 847 1108 q 1255 777 1165 937 q 1345 441 1345 616 q 1258 111 1345 269 q 1012 -135 1171 -47 q 679 -223 853 -223 q 348 -135 507 -223 q 102 111 189 -47 q 14 441 14 269 q 104 777 14 616 q 352 1022 193 937 q 679 1108 511 1108 z "},"q":{"ha":1356,"x_min":13,"x_max":1344,"o":"m 677 1111 q 1005 1025 846 1111 q 1254 779 1164 939 q 1344 444 1344 619 q 1257 114 1344 271 q 1010 -132 1169 -44 q 677 -220 852 -220 q 347 -132 505 -220 q 100 114 188 -44 q 13 444 13 271 q 102 779 13 619 q 351 1025 192 939 q 677 1111 510 1111 m 677 734 q 548 704 608 734 q 448 622 488 673 l 399 622 q 327 603 359 622 q 276 551 295 583 q 257 481 257 519 l 257 395 q 276 324 257 356 q 327 273 295 292 q 399 254 359 254 l 457 254 q 554 180 498 208 q 677 153 611 153 q 799 180 743 153 q 896 254 856 208 l 953 254 q 1024 273 991 254 q 1075 324 1056 292 q 1095 395 1095 356 l 1095 481 q 1075 551 1095 519 q 1024 603 1056 583 q 953 622 991 622 l 905 622 q 806 704 865 673 q 677 734 747 734 m 695 395 q 680 330 695 360 q 637 281 664 300 q 729 281 676 281 q 833 281 782 281 q 917 281 884 281 q 953 281 951 281 q 1010 296 984 281 q 1052 338 1036 312 q 1067 395 1067 363 l 1067 481 q 1052 538 1067 512 q 1010 579 1036 564 q 953 595 984 595 l 809 595 q 752 579 778 595 q 710 538 726 564 q 695 481 695 512 l 695 395 m 508 351 l 462 351 l 453 391 q 445 434 448 413 q 440 467 441 456 q 436 434 439 456 q 428 391 432 413 l 419 351 l 373 351 l 329 535 l 381 535 l 387 505 q 393 463 390 484 q 397 425 396 441 q 403 462 399 441 q 412 504 406 484 l 418 535 l 464 535 l 471 504 q 479 462 475 484 q 484 425 482 441 q 489 463 486 441 q 495 505 492 484 l 500 535 l 552 535 l 508 351 m 599 499 q 579 506 587 499 q 571 522 571 512 q 579 539 571 532 q 599 545 587 545 q 618 539 610 545 q 627 522 627 532 q 618 506 627 512 q 599 499 610 499 m 575 351 l 575 485 l 622 485 l 622 351 l 575 351 m 810 492 l 810 450 l 908 450 l 908 408 l 810 408 l 810 351 l 760 351 l 760 535 l 919 535 l 919 492 l 810 492 m 972 499 q 952 506 960 499 q 945 522 945 512 q 952 539 945 532 q 972 545 960 545 q 992 539 984 545 q 1000 522 1000 532 q 992 506 1000 512 q 972 499 984 499 m 948 351 l 948 485 l 996 485 l 996 351 l 948 351 z "},"r":{"ha":1356,"x_min":14,"x_max":1345,"o":"m 340 799 l 340 661 q 600 576 484 642 q 696 505 648 547 q 785 405 745 463 q 851 269 825 347 q 884 93 878 192 l 1016 93 q 945 430 1014 281 q 865 557 913 494 q 744 671 817 621 q 572 756 671 722 q 340 799 473 791 m 340 423 q 491 377 423 413 q 547 335 520 361 q 598 275 574 310 q 636 195 621 241 q 654 90 650 150 l 785 90 q 734 319 781 216 q 680 403 712 361 q 601 480 648 446 q 489 537 553 515 q 340 562 425 559 l 340 423 m 439 90 q 509 118 480 90 q 538 189 538 147 q 509 258 538 229 q 439 288 480 288 q 369 258 398 288 q 340 189 340 229 q 369 118 340 147 q 439 90 398 90 m 679 1108 q 1006 1022 847 1108 q 1255 777 1165 937 q 1345 441 1345 616 q 1258 111 1345 269 q 1012 -135 1171 -47 q 679 -223 853 -223 q 348 -135 507 -223 q 102 111 189 -47 q 14 441 14 269 q 104 777 14 616 q 352 1022 193 937 q 679 1108 511 1108 z "},"s":{"ha":1356,"x_min":14,"x_max":1345,"o":"m 679 1108 q 352 1022 511 1108 q 104 777 193 937 q 14 441 14 616 q 102 111 14 269 q 348 -135 189 -47 q 679 -223 507 -223 q 1012 -135 853 -223 q 1258 111 1171 -47 q 1345 441 1345 269 q 1255 777 1345 616 q 1006 1022 1165 937 q 679 1108 847 1108 m 673 175 q 711 176 692 175 q 792 197 754 178 q 856 244 829 216 q 890 297 883 273 q 897 334 897 321 q 887 378 897 357 q 711 492 852 463 q 633 509 671 500 q 587 533 595 518 q 578 560 578 549 q 615 610 578 587 q 669 625 640 625 q 725 609 701 625 q 767 579 749 594 q 799 552 785 564 q 825 541 812 541 q 854 553 840 541 q 872 589 872 567 q 839 649 872 623 q 671 710 774 710 q 629 708 650 710 q 523 665 570 703 q 470 555 477 627 l 469 543 q 530 444 469 482 q 667 395 582 410 q 758 363 727 387 q 778 340 776 351 q 780 328 780 330 q 763 296 780 313 q 691 267 736 267 q 631 276 660 267 q 601 290 610 283 q 582 307 592 296 q 514 355 545 355 q 479 342 494 355 q 463 304 463 330 q 495 242 463 270 q 574 191 532 206 q 673 175 616 175 m 855 55 q 743 87 795 55 q 677 82 710 82 q 536 110 602 82 q 423 186 471 138 q 347 300 375 235 q 318 441 318 366 q 325 496 318 469 q 290 615 290 551 q 352 767 290 705 q 503 830 415 830 q 618 795 566 830 q 677 799 633 799 q 817 770 751 799 q 1007 581 949 713 q 1036 441 1036 515 q 1031 391 1036 416 q 1069 271 1069 337 q 1006 118 1069 182 q 855 55 942 55 z "},"t":{"ha":1356,"x_min":14,"x_max":1345,"o":"m 536 127 q 831 234 701 127 q 962 430 922 317 q 989 574 989 507 l 989 602 q 1033 640 1002 610 q 1068 684 1056 665 l 1067 684 q 978 659 1006 659 l 978 661 q 1012 686 988 665 q 1047 747 1038 718 q 981 718 1016 729 q 945 709 951 709 q 830 758 892 758 q 718 713 766 758 q 669 600 669 665 q 673 564 669 583 q 604 572 655 564 q 450 635 516 593 q 344 730 400 667 q 323 652 323 690 q 361 547 323 593 q 393 518 380 525 l 393 517 q 322 536 361 517 q 370 420 322 470 q 426 386 401 393 q 448 378 444 378 q 430 374 448 378 l 412 373 l 406 373 q 378 376 393 373 q 444 291 397 320 q 526 265 484 265 q 481 235 503 246 q 334 197 407 197 q 291 199 307 197 q 536 127 402 127 m 679 1108 q 1006 1022 847 1108 q 1255 777 1165 937 q 1345 441 1345 616 q 1258 111 1345 269 q 1012 -135 1171 -47 q 679 -223 853 -223 q 348 -135 507 -223 q 102 111 189 -47 q 14 441 14 269 q 104 777 14 616 q 352 1022 193 937 q 679 1108 511 1108 z "},"u":{"ha":1356,"x_min":14,"x_max":1345,"o":"m 456 264 q 528 279 494 264 q 587 318 562 293 q 627 378 612 344 q 642 449 642 412 q 627 521 642 488 q 587 580 612 555 q 528 620 562 606 q 456 635 494 635 q 385 620 418 635 q 326 580 351 606 q 286 521 300 555 q 271 449 271 488 q 286 378 271 412 q 326 318 300 344 q 385 279 351 293 q 456 264 418 264 m 900 264 q 971 279 938 264 q 1031 318 1005 293 q 1071 378 1057 344 q 1085 449 1085 412 q 1071 521 1085 488 q 1031 580 1057 555 q 971 620 1005 606 q 900 635 938 635 q 828 620 861 635 q 769 580 794 606 q 729 521 744 555 q 714 449 714 488 q 729 378 714 412 q 769 318 744 344 q 828 279 794 293 q 900 264 861 264 m 679 1108 q 1006 1022 847 1108 q 1255 777 1165 937 q 1345 441 1345 616 q 1258 111 1345 269 q 1012 -135 1171 -47 q 679 -223 853 -223 q 348 -135 507 -223 q 102 111 189 -47 q 14 441 14 269 q 104 777 14 616 q 352 1022 193 937 q 679 1108 511 1108 z "},"v":{"ha":1356,"x_min":14,"x_max":1345,"o":"m 685 105 q 741 117 718 105 q 785 142 764 128 q 844 171 821 165 q 873 172 851 172 q 916 169 897 172 q 932 167 922 167 q 946 183 946 167 q 947 192 946 188 q 958 214 954 214 q 1055 249 1044 229 l 1055 254 l 1055 257 q 1048 262 1055 260 q 979 290 1007 269 q 901 370 927 326 q 890 391 890 387 q 883 409 883 400 q 907 441 883 432 l 944 454 q 979 483 979 469 q 958 503 975 498 q 946 505 955 505 q 935 503 938 505 q 897 494 911 494 q 883 496 888 494 q 877 499 879 499 q 883 601 883 551 q 825 728 883 678 q 722 778 777 770 q 685 781 699 781 q 638 778 661 781 q 534 728 581 770 q 477 601 477 677 q 481 499 477 567 q 475 496 480 499 q 460 494 469 494 q 422 503 445 494 l 412 505 q 392 500 403 505 q 381 481 381 495 q 394 464 381 472 q 453 441 408 456 q 476 411 476 433 q 469 391 476 401 q 460 369 469 387 q 431 330 451 352 q 312 262 375 271 q 304 257 304 260 l 305 254 l 305 249 q 401 214 316 229 q 412 192 406 214 q 414 183 414 188 q 428 165 414 165 q 444 169 433 165 q 486 172 462 172 q 517 171 509 172 q 574 142 535 165 q 618 117 595 128 q 674 105 642 105 l 685 105 m 679 1108 q 1006 1022 847 1108 q 1255 777 1165 937 q 1345 441 1345 616 q 1258 111 1345 269 q 1012 -135 1171 -47 q 679 -223 853 -223 q 348 -135 507 -223 q 102 111 189 -47 q 14 441 14 269 q 104 777 14 616 q 352 1022 193 937 q 679 1108 511 1108 z "},"w":{"ha":1356,"x_min":17,"x_max":1343,"o":"m 211 907 q 680 1099 405 1099 q 1149 907 955 1099 q 1343 444 1343 715 q 1149 -18 1343 174 q 680 -210 955 -210 q 211 -18 405 -210 q 17 444 17 174 q 211 907 17 715 m 1050 383 q 845 155 1001 224 q 699 124 775 124 q 659 126 680 124 q 500 184 585 134 l 362 140 q 395 239 366 150 l 408 272 q 385 311 406 272 q 341 448 348 376 q 338 490 338 469 q 491 778 338 667 q 672 843 573 837 q 701 844 686 844 q 977 715 869 844 q 1066 490 1066 612 q 1050 383 1066 439 m 1133 511 q 1006 787 1117 676 q 728 911 897 897 l 675 911 q 392 781 497 894 q 269 488 271 652 q 320 287 269 388 q 326 261 326 274 q 321 235 326 248 q 251 32 251 34 l 254 37 q 257 34 255 34 q 374 73 301 50 q 492 110 470 102 q 700 56 599 56 l 713 56 q 924 118 832 61 q 1133 458 1110 233 l 1133 511 m 918 385 q 870 412 909 393 q 815 435 825 435 l 814 435 q 787 408 808 435 q 759 380 767 382 l 758 380 q 707 402 745 380 q 629 471 665 425 q 600 518 600 509 q 621 544 600 519 q 635 573 635 562 q 614 628 635 578 q 589 676 594 673 q 568 681 579 681 q 546 677 557 681 q 491 579 491 663 q 541 458 491 531 q 695 320 612 359 q 805 283 758 291 l 815 283 q 871 298 842 283 q 920 374 920 323 q 918 385 920 379 z "},"x":{"ha":1356,"x_min":14,"x_max":1345,"o":"m 678 360 q 584 386 627 360 q 516 454 541 411 q 490 548 490 496 q 516 643 490 600 q 584 711 541 686 q 678 736 627 736 q 772 711 730 736 q 841 643 815 686 q 866 548 866 600 q 841 454 866 496 q 772 386 815 411 q 678 360 730 360 m 678 448 q 749 477 720 448 q 778 548 778 507 q 749 619 778 589 q 678 648 720 648 q 608 619 637 648 q 578 548 578 589 q 608 477 578 507 q 678 448 637 448 m 454 -13 q 394 3 421 -13 q 350 47 366 20 q 334 108 334 75 q 333 543 334 540 q 333 548 333 545 q 360 682 333 619 q 434 792 387 745 q 544 866 481 839 q 678 893 607 893 q 812 866 749 893 q 922 792 875 839 q 996 682 969 745 q 1023 548 1023 619 q 996 414 1023 477 q 922 304 969 351 q 812 230 875 257 q 678 203 749 203 q 576 218 625 203 l 576 108 q 559 47 576 75 q 515 3 543 20 q 454 -13 488 -13 m 454 67 q 484 79 471 67 q 496 108 496 91 l 496 255 q 414 327 449 285 l 414 108 q 426 79 414 91 q 454 67 437 67 m 678 291 q 808 326 749 291 q 901 419 866 360 q 935 548 935 477 q 901 677 935 619 q 808 771 866 736 q 678 806 749 806 q 549 771 608 806 q 456 677 490 736 q 421 548 421 619 q 456 419 421 477 q 549 326 490 360 q 678 291 608 291 m 679 1108 q 352 1022 511 1108 q 104 777 193 937 q 14 441 14 616 q 102 111 14 269 q 348 -135 189 -47 q 679 -223 507 -223 q 1012 -135 853 -223 q 1258 111 1171 -47 q 1345 441 1345 269 q 1255 777 1345 616 q 1006 1022 1165 937 q 679 1108 847 1108 z "},"y":{"ha":1356,"x_min":14,"x_max":1345,"o":"m 683 181 q 826 182 739 181 q 958 190 941 186 q 1004 210 987 195 q 1035 254 1025 227 q 1053 412 1053 298 l 1053 473 q 1045 593 1053 526 q 1017 665 1036 644 q 1002 676 1006 675 q 962 694 984 691 q 680 705 907 705 q 543 702 620 705 q 396 693 414 699 q 338 659 362 688 q 314 593 325 642 q 307 473 307 526 q 319 276 307 308 q 330 239 325 252 q 389 194 347 208 l 418 189 q 487 184 430 186 q 683 181 621 181 m 579 338 l 579 547 q 745 461 583 545 q 781 441 781 442 l 579 338 m 679 1108 q 1006 1022 847 1108 q 1255 777 1165 937 q 1345 441 1345 616 q 1258 111 1345 269 q 1012 -135 1171 -47 q 679 -223 853 -223 q 348 -135 507 -223 q 102 111 189 -47 q 14 441 14 269 q 104 777 14 616 q 352 1022 193 937 q 679 1108 511 1108 z "},"z":{"ha":1356,"x_min":14,"x_max":1345,"o":"m 880 629 q 726 635 771 635 l 728 823 l 613 823 q 461 614 585 654 l 461 515 q 533 507 515 507 q 539 509 539 507 l 539 460 q 536 368 539 422 q 534 305 534 332 q 538 244 534 267 q 673 77 553 120 q 760 61 718 61 q 899 106 831 61 q 861 216 890 133 q 800 199 825 199 q 728 286 741 199 q 732 515 728 290 l 880 515 l 880 629 m 679 1108 q 1006 1022 847 1108 q 1255 777 1165 937 q 1345 441 1345 616 q 1258 111 1345 269 q 1012 -135 1171 -47 q 679 -223 853 -223 q 348 -135 507 -223 q 102 111 189 -47 q 14 441 14 269 q 104 777 14 616 q 352 1022 193 937 q 679 1108 511 1108 z "},"{":{"ha":688,"x_min":0,"x_max":0,"o":""},"|":{"ha":688,"x_min":0,"x_max":0,"o":""},"}":{"ha":688,"x_min":0,"x_max":0,"o":""},"~":{"ha":688,"x_min":0,"x_max":0,"o":""},"":{"ha":456,"x_min":0,"x_max":0,"o":""},"":{"ha":1356,"x_min":0,"x_max":0,"o":""},"":{"ha":688,"x_min":0,"x_max":0,"o":""},"":{"ha":688,"x_min":0,"x_max":0,"o":""},"":{"ha":856,"x_min":0,"x_max":0,"o":""},"":{"ha":688,"x_min":0,"x_max":0,"o":""},"":{"ha":688,"x_min":0,"x_max":0,"o":""},"":{"ha":694,"x_min":0,"x_max":0,"o":""},"":{"ha":1135,"x_min":0,"x_max":0,"o":""},"":{"ha":439,"x_min":0,"x_max":0,"o":""},"":{"ha":640,"x_min":0,"x_max":0,"o":""},"":{"ha":688,"x_min":0,"x_max":0,"o":""},"":{"ha":1135,"x_min":0,"x_max":0,"o":""},"":{"ha":454,"x_min":0,"x_max":0,"o":""},"":{"ha":457,"x_min":0,"x_max":0,"o":""},"":{"ha":688,"x_min":0,"x_max":0,"o":""},"":{"ha":688,"x_min":0,"x_max":0,"o":""},"":{"ha":688,"x_min":0,"x_max":0,"o":""},"":{"ha":694,"x_min":0,"x_max":0,"o":""},"":{"ha":800,"x_min":0,"x_max":0,"o":""},"":{"ha":694,"x_min":0,"x_max":0,"o":""},"":{"ha":345,"x_min":0,"x_max":0,"o":""},"":{"ha":694,"x_min":0,"x_max":0,"o":""},"":{"ha":688,"x_min":0,"x_max":0,"o":""},"":{"ha":487,"x_min":0,"x_max":0,"o":""},"":{"ha":640,"x_min":0,"x_max":0,"o":""},"":{"ha":1158,"x_min":0,"x_max":0,"o":""},"":{"ha":1332,"x_min":0,"x_max":0,"o":""},"":{"ha":1158,"x_min":0,"x_max":0,"o":""},"":{"ha":507,"x_min":0,"x_max":0,"o":""},"":{"ha":1044,"x_min":0,"x_max":0,"o":""},"":{"ha":1044,"x_min":0,"x_max":0,"o":""},"":{"ha":1044,"x_min":0,"x_max":0,"o":""},"":{"ha":1044,"x_min":0,"x_max":0,"o":""},"":{"ha":1356,"x_min":0,"x_max":0,"o":""},"":{"ha":1356,"x_min":0,"x_max":0,"o":""},"":{"ha":1356,"x_min":0,"x_max":0,"o":""},"":{"ha":1356,"x_min":0,"x_max":0,"o":""},"":{"ha":1356,"x_min":0,"x_max":0,"o":""},"":{"ha":1356,"x_min":0,"x_max":0,"o":""},"":{"ha":1356,"x_min":0,"x_max":0,"o":""},"":{"ha":1356,"x_min":0,"x_max":0,"o":""},"":{"ha":1356,"x_min":0,"x_max":0,"o":""},"":{"ha":1356,"x_min":0,"x_max":0,"o":""},"":{"ha":1356,"x_min":0,"x_max":0,"o":""},"":{"ha":1356,"x_min":0,"x_max":0,"o":""},"":{"ha":1356,"x_min":0,"x_max":0,"o":""},"":{"ha":1356,"x_min":0,"x_max":0,"o":""},"":{"ha":1356,"x_min":0,"x_max":0,"o":""},"":{"ha":1356,"x_min":0,"x_max":0,"o":""},"":{"ha":1356,"x_min":0,"x_max":0,"o":""},"":{"ha":1356,"x_min":0,"x_max":0,"o":""},"":{"ha":1356,"x_min":0,"x_max":0,"o":""},"":{"ha":1356,"x_min":0,"x_max":0,"o":""},"":{"ha":1356,"x_min":0,"x_max":0,"o":""},"":{"ha":1356,"x_min":0,"x_max":0,"o":""},"":{"ha":1356,"x_min":0,"x_max":0,"o":""},"":{"ha":1356,"x_min":0,"x_max":0,"o":""},"":{"ha":1356,"x_min":0,"x_max":0,"o":""},"":{"ha":1356,"x_min":0,"x_max":0,"o":""},"":{"ha":1356,"x_min":0,"x_max":0,"o":""},"":{"ha":1356,"x_min":0,"x_max":0,"o":""},"":{"ha":1356,"x_min":0,"x_max":0,"o":""},"":{"ha":1356,"x_min":0,"x_max":0,"o":""},"":{"ha":1356,"x_min":0,"x_max":0,"o":""},"":{"ha":1356,"x_min":0,"x_max":0,"o":""},"":{"ha":1356,"x_min":0,"x_max":0,"o":""},"":{"ha":1356,"x_min":0,"x_max":0,"o":""},"":{"ha":1356,"x_min":0,"x_max":0,"o":""},"":{"ha":1356,"x_min":0,"x_max":0,"o":""},"":{"ha":616,"x_min":0,"x_max":0,"o":""},"":{"ha":616,"x_min":0,"x_max":0,"o":""},"":{"ha":616,"x_min":0,"x_max":0,"o":""},"":{"ha":616,"x_min":0,"x_max":0,"o":""},"":{"ha":349,"x_min":0,"x_max":0,"o":""},"":{"ha":349,"x_min":0,"x_max":0,"o":""},"":{"ha":349,"x_min":0,"x_max":0,"o":""},"":{"ha":349,"x_min":0,"x_max":0,"o":""},"":{"ha":772,"x_min":0,"x_max":0,"o":""},"":{"ha":751,"x_min":0,"x_max":0,"o":""},"":{"ha":685,"x_min":0,"x_max":0,"o":""},"":{"ha":685,"x_min":0,"x_max":0,"o":""},"":{"ha":685,"x_min":0,"x_max":0,"o":""},"":{"ha":685,"x_min":0,"x_max":0,"o":""},"":{"ha":685,"x_min":0,"x_max":0,"o":""},"":{"ha":688,"x_min":0,"x_max":0,"o":""},"":{"ha":685,"x_min":0,"x_max":0,"o":""},"":{"ha":718,"x_min":0,"x_max":0,"o":""},"":{"ha":718,"x_min":0,"x_max":0,"o":""},"":{"ha":718,"x_min":0,"x_max":0,"o":""},"":{"ha":718,"x_min":0,"x_max":0,"o":""},"":{"ha":589,"x_min":0,"x_max":0,"o":""},"":{"ha":685,"x_min":0,"x_max":0,"o":""},"":{"ha":589,"x_min":0,"x_max":0,"o":""},"":{"ha":1356,"x_min":0,"x_max":0,"o":""},"":{"ha":1356,"x_min":0,"x_max":0,"o":""},"":{"ha":1356,"x_min":0,"x_max":0,"o":""},"":{"ha":1356,"x_min":0,"x_max":0,"o":""},"":{"ha":1356,"x_min":0,"x_max":0,"o":""},"":{"ha":1356,"x_min":0,"x_max":0,"o":""},"":{"ha":1356,"x_min":0,"x_max":0,"o":""},"":{"ha":1356,"x_min":0,"x_max":0,"o":""},"":{"ha":1356,"x_min":0,"x_max":0,"o":""},"":{"ha":1356,"x_min":0,"x_max":0,"o":""},"":{"ha":1356,"x_min":0,"x_max":0,"o":""},"":{"ha":1356,"x_min":0,"x_max":0,"o":""},"":{"ha":1356,"x_min":0,"x_max":0,"o":""},"":{"ha":1356,"x_min":0,"x_max":0,"o":""},"":{"ha":1356,"x_min":0,"x_max":0,"o":""},"":{"ha":1356,"x_min":0,"x_max":0,"o":""},"":{"ha":1356,"x_min":0,"x_max":0,"o":""},"":{"ha":1356,"x_min":0,"x_max":0,"o":""},"":{"ha":1356,"x_min":0,"x_max":0,"o":""},"":{"ha":1356,"x_min":0,"x_max":0,"o":""},"":{"ha":1356,"x_min":0,"x_max":0,"o":""},"":{"ha":1356,"x_min":0,"x_max":0,"o":""},"":{"ha":1356,"x_min":0,"x_max":0,"o":""},"":{"ha":1356,"x_min":0,"x_max":0,"o":""},"":{"ha":1356,"x_min":0,"x_max":0,"o":""},"":{"ha":1356,"x_min":0,"x_max":0,"o":""},"":{"ha":1356,"x_min":0,"x_max":0,"o":""},"":{"ha":1356,"x_min":0,"x_max":0,"o":""},"":{"ha":1356,"x_min":0,"x_max":0,"o":""},"":{"ha":1356,"x_min":0,"x_max":0,"o":""},"":{"ha":1356,"x_min":0,"x_max":0,"o":""},"":{"ha":1356,"x_min":0,"x_max":0,"o":""},"":{"ha":1356,"x_min":0,"x_max":0,"o":""},"":{"ha":1356,"x_min":0,"x_max":0,"o":""},"":{"ha":1356,"x_min":0,"x_max":0,"o":""},"":{"ha":1356,"x_min":0,"x_max":0,"o":""},"":{"ha":1356,"x_min":0,"x_max":0,"o":""},"":{"ha":1356,"x_min":0,"x_max":0,"o":""},"":{"ha":1356,"x_min":0,"x_max":0,"o":""},"":{"ha":1356,"x_min":0,"x_max":0,"o":""},"":{"ha":1356,"x_min":0,"x_max":0,"o":""},"":{"ha":1356,"x_min":0,"x_max":0,"o":""},"":{"ha":1356,"x_min":0,"x_max":0,"o":""},"":{"ha":1356,"x_min":0,"x_max":0,"o":""}}}
